<svg width="142" height="142" viewBox="0 0 142 142" fill="none" xmlns="http://www.w3.org/2000/svg">
<circle cx="71" cy="71" r="71" fill="#B8B8B9"/>
<circle cx="70.5" cy="71.5" r="66.5" fill="#CACACA"/>
<circle cx="71" cy="71" r="63" fill="url(#paint0_radial)"/>
<rect x="49" y="22" width="44" height="29" rx="4" fill="black"/>
<path d="M61.0331 33.3104L60.5051 35H59.6795L61.8395 28.3856H62.8955L65.0459 35H64.1819L63.6539 33.3104H61.0331ZM63.4331 32.6192L62.3483 29.096L61.2539 32.6192H63.4331ZM70.5526 31.6592C70.5526 32.9136 70.2646 33.784 69.6886 34.2704C69.1126 34.7568 68.4021 35 67.5573 35H66.0405V28.3856H67.4517C68.3797 28.3856 69.1286 28.6192 69.6981 29.0864C70.2678 29.5536 70.5526 30.4112 70.5526 31.6592ZM69.6597 31.6592C69.6597 30.9424 69.5605 30.3952 69.3621 30.0176C69.1701 29.6336 68.9301 29.3808 68.6421 29.2592C68.3541 29.1312 68.0245 29.0672 67.6533 29.0672H66.8757V34.328H67.6629C68.2325 34.328 68.7061 34.1328 69.0837 33.7424C69.4677 33.3456 69.6597 32.6512 69.6597 31.6592ZM76.3088 31.6976C76.3088 32.728 76.0976 33.5536 75.6752 34.1744C75.2592 34.7952 74.6608 35.1056 73.88 35.1056C73.0928 35.1056 72.4912 34.8016 72.0752 34.1936C71.6592 33.5856 71.4512 32.7568 71.4512 31.7072C71.4512 31.0352 71.544 30.44 71.7296 29.9216C71.9152 29.4032 72.1904 29 72.5552 28.712C72.92 28.424 73.3616 28.28 73.88 28.28C74.6608 28.28 75.2592 28.5904 75.6752 29.2112C76.0976 29.8256 76.3088 30.6544 76.3088 31.6976ZM75.4448 31.6976C75.4448 30.7952 75.32 30.1168 75.0704 29.6624C74.8208 29.208 74.424 28.9808 73.88 28.9808C73.336 28.9808 72.9392 29.2112 72.6896 29.672C72.44 30.1264 72.3152 30.8048 72.3152 31.7072C72.3152 32.6032 72.44 33.2784 72.6896 33.7328C72.9456 34.1808 73.3424 34.4048 73.88 34.4048C74.424 34.4048 74.8208 34.1808 75.0704 33.7328C75.32 33.2784 75.4448 32.6 75.4448 31.6976ZM78.1867 28.3856L79.6363 30.9296L81.0955 28.3856H81.9883L80.1163 31.4288L82.2187 35H81.2587L79.6171 32.0144L77.9467 35H77.0539L79.1275 31.4768L77.2267 28.3856H78.1867Z" fill="white"/>
<path d="M56.222 42.854C56.222 43.094 56.162 43.306 56.042 43.49C55.922 43.67 55.748 43.812 55.52 43.916C55.292 44.016 55.022 44.066 54.71 44.066C54.41 44.066 54.136 44.022 53.888 43.934C53.644 43.842 53.434 43.712 53.258 43.544L53.57 43.19C53.722 43.334 53.89 43.444 54.074 43.52C54.262 43.596 54.476 43.634 54.716 43.634C54.988 43.634 55.216 43.568 55.4 43.436C55.584 43.304 55.676 43.114 55.676 42.866C55.676 42.726 55.65 42.61 55.598 42.518C55.546 42.426 55.454 42.344 55.322 42.272C55.194 42.2 55.012 42.13 54.776 42.062C54.328 41.93 53.994 41.776 53.774 41.6C53.554 41.42 53.444 41.176 53.444 40.868C53.444 40.664 53.5 40.48 53.612 40.316C53.724 40.152 53.882 40.026 54.086 39.938C54.29 39.846 54.522 39.8 54.782 39.8C55.054 39.8 55.296 39.84 55.508 39.92C55.724 40 55.922 40.118 56.102 40.274L55.79 40.61C55.506 40.362 55.176 40.238 54.8 40.238C54.56 40.238 54.362 40.29 54.206 40.394C54.05 40.498 53.972 40.65 53.972 40.85C53.972 40.97 54.004 41.072 54.068 41.156C54.132 41.24 54.238 41.318 54.386 41.39C54.534 41.462 54.742 41.536 55.01 41.612C55.398 41.724 55.696 41.87 55.904 42.05C56.116 42.23 56.222 42.498 56.222 42.854ZM57.5997 42.596C57.6117 42.944 57.7017 43.206 57.8697 43.382C58.0417 43.558 58.2577 43.646 58.5177 43.646C58.6737 43.646 58.8157 43.624 58.9437 43.58C59.0757 43.532 59.2157 43.46 59.3637 43.364L59.5977 43.7C59.4497 43.816 59.2797 43.906 59.0877 43.97C58.8997 44.034 58.7097 44.066 58.5177 44.066C58.0617 44.066 57.7057 43.918 57.4497 43.622C57.1977 43.322 57.0717 42.922 57.0717 42.422C57.0717 42.106 57.1277 41.824 57.2397 41.576C57.3517 41.324 57.5117 41.128 57.7197 40.988C57.9277 40.844 58.1697 40.772 58.4457 40.772C58.8457 40.772 59.1597 40.912 59.3877 41.192C59.6197 41.468 59.7357 41.846 59.7357 42.326C59.7357 42.418 59.7317 42.508 59.7237 42.596H57.5997ZM58.4517 41.186C58.2077 41.186 58.0097 41.274 57.8577 41.45C57.7057 41.622 57.6197 41.876 57.5997 42.212H59.2437C59.2397 41.88 59.1677 41.626 59.0277 41.45C58.8877 41.274 58.6957 41.186 58.4517 41.186ZM60.7953 40.838H61.2273L61.2693 41.282C61.3933 41.122 61.5493 40.998 61.7373 40.91C61.9293 40.818 62.1213 40.772 62.3133 40.772C62.9053 40.772 63.2013 41.084 63.2013 41.708V44H62.6973V42.08C62.6973 41.844 62.6833 41.664 62.6553 41.54C62.6313 41.416 62.5813 41.324 62.5053 41.264C62.4293 41.204 62.3133 41.174 62.1573 41.174C61.9853 41.174 61.8233 41.226 61.6713 41.33C61.5193 41.434 61.3953 41.558 61.2993 41.702V44H60.7953V40.838ZM65.473 43.652C65.713 43.652 65.903 43.606 66.043 43.514C66.183 43.422 66.253 43.3 66.253 43.148C66.253 43.044 66.235 42.96 66.199 42.896C66.163 42.828 66.091 42.768 65.983 42.716C65.875 42.66 65.711 42.604 65.491 42.548C65.123 42.456 64.851 42.346 64.675 42.218C64.499 42.086 64.411 41.892 64.411 41.636C64.411 41.372 64.521 41.162 64.741 41.006C64.961 40.85 65.251 40.772 65.611 40.772C66.051 40.772 66.435 40.888 66.763 41.12L66.535 41.468C66.403 41.376 66.265 41.306 66.121 41.258C65.977 41.206 65.811 41.18 65.623 41.18C65.167 41.18 64.939 41.318 64.939 41.594C64.939 41.69 64.963 41.768 65.011 41.828C65.063 41.888 65.145 41.942 65.257 41.99C65.373 42.034 65.545 42.088 65.773 42.152C66.117 42.244 66.373 42.362 66.541 42.506C66.713 42.646 66.799 42.852 66.799 43.124C66.799 43.44 66.671 43.676 66.415 43.832C66.159 43.988 65.845 44.066 65.473 44.066C64.977 44.066 64.565 43.924 64.237 43.64L64.519 43.31C64.647 43.414 64.793 43.498 64.957 43.562C65.121 43.622 65.293 43.652 65.473 43.652ZM69.1966 40.772C69.6326 40.772 69.9666 40.92 70.1986 41.216C70.4346 41.508 70.5526 41.908 70.5526 42.416C70.5526 42.912 70.4326 43.312 70.1926 43.616C69.9566 43.916 69.6226 44.066 69.1906 44.066C68.7546 44.066 68.4186 43.92 68.1826 43.628C67.9466 43.332 67.8286 42.93 67.8286 42.422C67.8286 41.922 67.9466 41.522 68.1826 41.222C68.4226 40.922 68.7606 40.772 69.1966 40.772ZM69.1966 41.186C68.9206 41.186 68.7146 41.288 68.5786 41.492C68.4426 41.696 68.3746 42.006 68.3746 42.422C68.3746 42.838 68.4406 43.148 68.5726 43.352C68.7086 43.552 68.9146 43.652 69.1906 43.652C69.4666 43.652 69.6706 43.552 69.8026 43.352C69.9386 43.148 70.0066 42.836 70.0066 42.416C70.0066 42 69.9386 41.692 69.8026 41.492C69.6706 41.288 69.4686 41.186 69.1966 41.186ZM73.7243 40.772C73.8523 40.772 74.0003 40.794 74.1683 40.838L74.0963 41.912H73.6883V41.234H73.6583C73.1703 41.234 72.8243 41.582 72.6203 42.278V43.61H73.2623V44H71.6183V43.61H72.1163V41.228H71.6183V40.838H72.4943L72.5903 41.588C72.7183 41.316 72.8703 41.112 73.0463 40.976C73.2263 40.84 73.4523 40.772 73.7243 40.772ZM80.3316 39.8C80.5876 39.8 80.8076 39.834 80.9916 39.902C81.1756 39.966 81.3556 40.066 81.5316 40.202L81.2376 40.544C80.9936 40.34 80.7036 40.238 80.3676 40.238C79.9956 40.238 79.6916 40.374 79.4556 40.646C79.2236 40.914 79.1076 41.342 79.1076 41.93C79.1076 42.514 79.2216 42.942 79.4496 43.214C79.6776 43.486 79.9816 43.622 80.3616 43.622C80.5696 43.622 80.7476 43.592 80.8956 43.532C81.0436 43.472 81.1856 43.388 81.3216 43.28L81.5916 43.616C81.2836 43.916 80.8716 44.066 80.3556 44.066C80.0156 44.066 79.7096 43.984 79.4376 43.82C79.1656 43.652 78.9516 43.408 78.7956 43.088C78.6396 42.768 78.5616 42.382 78.5616 41.93C78.5616 41.482 78.6396 41.098 78.7956 40.778C78.9556 40.454 79.1696 40.21 79.4376 40.046C79.7096 39.882 80.0076 39.8 80.3316 39.8ZM85.0993 41.936C85.0993 42.58 84.9673 43.096 84.7033 43.484C84.4433 43.872 84.0693 44.066 83.5813 44.066C83.0893 44.066 82.7133 43.876 82.4533 43.496C82.1933 43.116 82.0633 42.598 82.0633 41.942C82.0633 41.522 82.1213 41.15 82.2373 40.826C82.3533 40.502 82.5253 40.25 82.7533 40.07C82.9813 39.89 83.2573 39.8 83.5813 39.8C84.0693 39.8 84.4433 39.994 84.7033 40.382C84.9673 40.766 85.0993 41.284 85.0993 41.936ZM84.5593 41.936C84.5593 41.372 84.4813 40.948 84.3253 40.664C84.1693 40.38 83.9213 40.238 83.5813 40.238C83.2413 40.238 82.9933 40.382 82.8373 40.67C82.6813 40.954 82.6033 41.378 82.6033 41.942C82.6033 42.502 82.6813 42.924 82.8373 43.208C82.9973 43.488 83.2453 43.628 83.5813 43.628C83.9213 43.628 84.1693 43.488 84.3253 43.208C84.4813 42.924 84.5593 42.5 84.5593 41.936ZM86.9929 39.8C87.2449 39.8 87.4649 39.85 87.6529 39.95C87.8449 40.05 87.9909 40.188 88.0909 40.364C88.1909 40.536 88.2409 40.732 88.2409 40.952C88.2409 41.208 88.1809 41.456 88.0609 41.696C87.9449 41.936 87.7569 42.2 87.4969 42.488C87.2369 42.772 86.8689 43.132 86.3929 43.568H88.3369L88.2769 44H85.8169V43.592C86.3569 43.076 86.7569 42.672 87.0169 42.38C87.2809 42.088 87.4629 41.838 87.5629 41.63C87.6629 41.422 87.7129 41.202 87.7129 40.97C87.7129 40.738 87.6469 40.556 87.5149 40.424C87.3829 40.292 87.2009 40.226 86.9689 40.226C86.7729 40.226 86.6089 40.26 86.4769 40.328C86.3489 40.392 86.2169 40.504 86.0809 40.664L85.7329 40.394C85.8969 40.19 86.0789 40.04 86.2789 39.944C86.4829 39.848 86.7209 39.8 86.9929 39.8Z" fill="white"/>
<path fill-rule="evenodd" clip-rule="evenodd" d="M91.9189 97.0692L91.7429 97.3786H97.3777L100.152 91.104L100.196 91.2806L102.881 97.3786H108.649L103.497 87.304L108.208 77.8057H102.397L100.196 83.1514L100.152 83.3281L97.8627 77.8057H92.0512L96.8054 87.304L91.9189 97.0692Z" fill="black"/>
<path fill-rule="evenodd" clip-rule="evenodd" d="M86.1069 88.9826C85.7992 90.0436 85.3585 91.104 84.8748 91.9006C84.4779 92.4299 83.7732 92.8721 83.2015 92.9604H83.0698C82.2771 92.9604 81.3971 92.165 80.781 90.6624C80.1644 89.116 79.8555 87.4368 79.8555 85.7582C79.8555 84.5218 80.1644 83.6374 80.781 83.0192C81.2205 82.4004 82.1442 82.0916 83.2015 82.0916C85.3585 82.0916 86.5481 83.328 86.5481 85.7582C86.5481 86.6858 86.4152 87.7456 86.1069 88.9826ZM91.9189 83.328C91.6106 81.5611 90.9059 80.2352 89.7619 79.3514C88.2646 78.115 85.9758 77.4962 83.2015 77.4962C80.1644 77.4962 77.7427 78.2478 76.3777 79.4848C75.145 80.7218 74.3967 82.842 74.3967 85.3166V85.4488C74.3967 86.9952 74.6613 88.541 74.969 90.0436C75.2773 91.59 76.0694 92.9604 76.8183 94.153C77.4344 95.2572 78.4911 96.3176 79.5471 96.9358C80.4727 97.554 81.8365 97.8634 83.2015 97.8634C84.6108 97.8634 85.9758 97.3786 87.0313 96.6264C88.0885 96.0082 89.1458 94.9478 89.7619 93.7114C90.3779 92.5188 91.1269 91.104 91.4346 89.6026C91.6106 88.806 91.7872 88.0105 91.9189 87.2163C92.0069 86.5536 92.0512 85.9348 92.0512 85.3166C92.0512 84.6095 92.0069 83.9462 91.9189 83.328Z" fill="black"/>
<path fill-rule="evenodd" clip-rule="evenodd" d="M64.4296 82.3396C66.6746 82.3396 67.8794 83.7258 67.8794 86.067C67.8794 87.6135 67.2634 89.2933 66.2079 90.6624C65.723 91.3683 65.1069 91.9439 64.358 92.341C63.6545 92.7387 62.817 92.9604 61.9375 92.9604V83.456H56.7415V97.3786H60.8359C62.0686 97.3786 63.2582 97.2452 64.358 96.9358C65.4589 96.6709 66.5162 96.2293 67.3963 95.6988C69.245 94.639 70.7429 93.0926 71.6667 91.2806C72.5911 89.4254 73.0323 87.4368 73.0323 85.6255C73.0323 83.1514 72.1504 81.0307 70.9183 79.7937C69.685 78.6011 67.704 77.8057 65.2823 77.8057H56.7415L55.961 82.3396H64.4296Z" fill="black"/>
<path fill-rule="evenodd" clip-rule="evenodd" d="M44.6835 78.2161C47.1076 77.1405 54.284 77.668 54.284 77.668L53.6207 72.0049L49.7484 72C48.0708 72 46.4788 72.1297 45.2735 72.3021C44.0693 72.4318 42.8639 72.9069 41.8315 73.3381C40.7991 73.6402 39.7661 74.3741 38.863 74.9796C36.7545 76.4474 35.1655 78.693 34.2618 81.1104C33.4012 83.4852 33 86.0323 33 88.4509V97.3889H39.7661V89.3139H46.9092V97.3889H53.6207V79.0329H46.9092V83.6581H40.3688C40.9278 81.4125 42.2594 79.2917 44.6835 78.2161Z" fill="black"/>
<defs>
<radialGradient id="paint0_radial" cx="0" cy="0" r="1" gradientUnits="userSpaceOnUse" gradientTransform="translate(71 71) rotate(90) scale(63)">
<stop stop-color="#F2F2F2"/>
<stop offset="1" stop-color="#ADADAD"/>
</radialGradient>
</defs>
</svg>
