<svg width="57" height="94" viewBox="0 0 57 94" fill="none" xmlns="http://www.w3.org/2000/svg">
<path d="M1.60001 73.57L19.72 62.94V32.56L1.60001 43.19V73.57Z" fill="#CACACA" stroke="black" stroke-width="0.5" stroke-linecap="round" stroke-linejoin="round"/>
<path d="M0.390015 44.29L1.60001 44.98V73.57L0.390015 72.98V44.29Z" fill="#CACACA" stroke="black" stroke-width="0.5" stroke-linecap="round" stroke-linejoin="round"/>
<path d="M22.58 71.04L39.54 61.18V41.91L22.58 51.77V71.04Z" fill="#EAEAEA" stroke="black" stroke-width="0.5" stroke-linecap="round" stroke-linejoin="round"/>
<path d="M56.61 54.5V51.7H22.58V53.62L39.65 63.48L56.61 53.62" fill="#EAEAEA"/>
<path d="M56.61 54.5V51.7H22.58V53.62L39.65 63.48L56.61 53.62" stroke="black" stroke-width="0.5" stroke-linecap="round" stroke-linejoin="round"/>
<path d="M39.65 82.75L56.61 72.89V53.62L39.65 63.48V82.75Z" fill="#EAEAEA" stroke="black" stroke-width="0.5" stroke-linecap="round" stroke-linejoin="round"/>
<path d="M56.61 51.7L39.54 41.84L22.58 51.7L39.65 61.56L56.61 51.7Z" fill="#EAEAEA" stroke="black" stroke-width="0.5" stroke-linecap="round" stroke-linejoin="round"/>
<path d="M49.5 24.36C48.4705 23.4471 47.3398 22.6553 46.13 22C42.31 19.81 39.43 20.52 37.76 22.45C35.23 25.01 33.98 32.45 33.21 32.85C30.436 34.1291 27.5633 35.1825 24.62 36L26.69 38.52C26.69 38.52 32.69 38.29 36.2 36.07C35.7087 37.8238 35.3313 39.6075 35.07 41.41L34.07 42.71C19.77 49.71 20.32 52.82 20.18 72.24L23.99 74.36C25.78 59 25.68 57.19 35.2 52C30.37 58.22 31 65.8 30.79 78.61L34.6 80.72C37.81 63.55 37.09 61.56 42.16 57.08C45.66 53.97 49.78 53.56 49.36 48.9C49.3821 47.7715 49.3353 46.6428 49.22 45.52C50.94 43.38 52.69 40.52 52.74 37.97C52.86 30.22 51.93 26.47 49.5 24.36Z" fill="#252525" stroke="black" stroke-width="0.75" stroke-linecap="round" stroke-linejoin="round"/>
<path d="M20.13 72.27C10.79 77.07 16.89 79.27 23.94 74.39L20.13 72.27Z" fill="white" stroke="black" stroke-width="0.75" stroke-linecap="round" stroke-linejoin="round"/>
<path d="M30.79 78.61C24.66 81.43 25.24 87.37 34.6 80.72L30.79 78.61Z" fill="white" stroke="black" stroke-width="0.75" stroke-linecap="round" stroke-linejoin="round"/>
<path d="M51.3 53.34V50.78L0.390015 42.53V44.29L33.18 63.16L51.3 52.54" fill="#DEDEDE"/>
<path d="M51.3 53.34V50.78L0.390015 42.53V44.29L33.18 63.16L51.3 52.54" stroke="black" stroke-width="0.5" stroke-linecap="round" stroke-linejoin="round"/>
<path d="M33.18 93.54L51.3 82.92V52.54L33.18 63.16V93.54Z" fill="#CACACA" stroke="black" stroke-width="0.5" stroke-linecap="round" stroke-linejoin="round"/>
<path d="M51.3 50.78L18.52 31.91L0.390015 42.53L33.18 61.41L51.3 50.78Z" fill="#EAEAEA" stroke="black" stroke-width="0.5" stroke-linecap="round" stroke-linejoin="round"/>
<path d="M33.18 93.54L31.98 92.94V62.56L33.18 63.16V93.54Z" fill="#CACACA" stroke="black" stroke-width="0.5" stroke-linecap="round" stroke-linejoin="round"/>
<path d="M40.74 47.67L28.11 55.08L19.49 50.13L32.13 42.72L40.74 47.67Z" fill="white" stroke="black" stroke-width="0.5" stroke-linecap="round" stroke-linejoin="round"/>
<path d="M52.74 38C52.65 43.12 45.93 49.08 45.93 49.08L42.74 47.15C42.74 47.15 47.09 40.48 47.24 38.58C47.528 36.4082 47.3194 34.1995 46.63 32.12" fill="#252525"/>
<path d="M52.74 38C52.65 43.12 45.93 49.08 45.93 49.08L42.74 47.15C42.74 47.15 47.09 40.48 47.24 38.58C47.528 36.4082 47.3194 34.1995 46.63 32.12" stroke="black" stroke-width="0.75" stroke-linecap="round" stroke-linejoin="round"/>
<path d="M42.74 47.12C38.12 50.67 40.99 53.84 45.93 49.05L42.74 47.12Z" fill="white" stroke="black" stroke-width="0.75" stroke-linecap="round" stroke-linejoin="round"/>
<path d="M24.62 36C18.54 35.7 18.49 41.7 26.69 38.52L24.62 36Z" fill="white" stroke="black" stroke-width="0.75" stroke-linecap="round" stroke-linejoin="round"/>
<path d="M45.4 15.84C46.8028 15.84 47.94 14.7028 47.94 13.3C47.94 11.8972 46.8028 10.76 45.4 10.76C43.9972 10.76 42.86 11.8972 42.86 13.3C42.86 14.7028 43.9972 15.84 45.4 15.84Z" fill="black" stroke="black" stroke-width="0.75" stroke-linecap="round" stroke-linejoin="round"/>
<path d="M41.52 13.91C42.5804 13.91 43.44 13.0504 43.44 11.99C43.44 10.9296 42.5804 10.07 41.52 10.07C40.4596 10.07 39.6 10.9296 39.6 11.99C39.6 13.0504 40.4596 13.91 41.52 13.91Z" fill="black" stroke="black" stroke-width="0.75" stroke-linecap="round" stroke-linejoin="round"/>
<path d="M50.29 14.91C50.29 16.8 48.29 20.6 46.4 20.6C45.4964 20.5947 44.6317 20.2321 43.9946 19.5913C43.3576 18.9505 43 18.0836 43 17.18C43 15.3 44.49 11.68 46.38 11.68C48.27 11.68 50.29 11.33 50.29 14.91Z" fill="black" stroke="black" stroke-width="0.75" stroke-linecap="round" stroke-linejoin="round"/>
<path d="M39.42 13.9C40.2871 13.9 40.99 13.1971 40.99 12.33C40.99 11.4629 40.2871 10.76 39.42 10.76C38.5529 10.76 37.85 11.4629 37.85 12.33C37.85 13.1971 38.5529 13.9 39.42 13.9Z" fill="black" stroke="black" stroke-width="0.75" stroke-linecap="round" stroke-linejoin="round"/>
<path d="M39.62 11.29C40.3711 11.29 40.98 10.6811 40.98 9.93001C40.98 9.1789 40.3711 8.57001 39.62 8.57001C38.8689 8.57001 38.26 9.1789 38.26 9.93001C38.26 10.6811 38.8689 11.29 39.62 11.29Z" fill="black" stroke="black" stroke-width="0.75" stroke-linecap="round" stroke-linejoin="round"/>
<path d="M48.2 19.97C48.9511 19.97 49.56 19.3611 49.56 18.61C49.56 17.8589 48.9511 17.25 48.2 17.25C47.4489 17.25 46.84 17.8589 46.84 18.61C46.84 19.3611 47.4489 19.97 48.2 19.97Z" fill="black" stroke="black" stroke-width="0.75" stroke-linecap="round" stroke-linejoin="round"/>
<path d="M45 10.32C44.9974 10.9177 44.7581 11.4899 44.3345 11.9116C43.911 12.3333 43.3377 12.57 42.74 12.57C41.49 12.57 38.17 12.05 38.17 10.8C38.17 9.55 41.49 8.06 42.74 8.06C43.3394 8.06 43.9142 8.2981 44.3381 8.72194C44.7619 9.14577 45 9.72061 45 10.32Z" fill="black" stroke="black" stroke-width="0.75" stroke-linecap="round" stroke-linejoin="round"/>
<path d="M45.51 11.02C46.2887 11.02 46.92 10.3887 46.92 9.61C46.92 8.83128 46.2887 8.2 45.51 8.2C44.7313 8.2 44.1 8.83128 44.1 9.61C44.1 10.3887 44.7313 11.02 45.51 11.02Z" fill="black" stroke="black" stroke-width="0.75" stroke-linecap="round" stroke-linejoin="round"/>
<path d="M46.83 15.84C48.3046 15.84 49.5 14.6446 49.5 13.17C49.5 11.6954 48.3046 10.5 46.83 10.5C45.3554 10.5 44.16 11.6954 44.16 13.17C44.16 14.6446 45.3554 15.84 46.83 15.84Z" fill="black" stroke="black" stroke-width="0.75" stroke-linecap="round" stroke-linejoin="round"/>
<path d="M39.14 11.29C39.14 11.5234 39.0473 11.7472 38.8823 11.9123C38.7172 12.0773 38.4934 12.17 38.26 12.17C38.0266 12.17 37.8028 12.0773 37.6377 11.9123C37.4727 11.7472 37.38 11.5234 37.38 11.29C37.7905 10.4087 38.4987 9.70049 39.38 9.29C39.9 9.27 39.14 10.81 39.14 11.29Z" fill="black" stroke="black" stroke-width="0.75" stroke-linecap="round" stroke-linejoin="round"/>
<path d="M40.71 22.23C40.7424 22.6761 40.7424 23.1239 40.71 23.57C40.71 24.88 45.47 25.14 45.62 22.21C45.77 19.28 46.76 20.5 47.05 18.6C47.34 16.7 47.49 12.45 44.86 11.72C42.23 10.99 39.58 11.26 38.72 12.45C38.64 12.56 38.27 15.2 37.81 17.91C37.6918 18.3857 37.6745 18.8809 37.7592 19.3636C37.844 19.8464 38.0289 20.3061 38.3021 20.713C38.5753 21.12 38.9307 21.4652 39.3454 21.7265C39.7601 21.9878 40.225 22.1593 40.71 22.23Z" fill="white" stroke="black" stroke-width="0.75" stroke-linecap="round" stroke-linejoin="round"/>
<path d="M36.2 36.1C36.4109 34.7396 36.2125 33.3473 35.63 32.1C34.63 30 36.97 28.1 37.27 25.76" stroke="black" stroke-width="0.75" stroke-linecap="round" stroke-linejoin="round"/>
<path d="M6.47 32.09L8.68 40.81L24.88 44.13L22.68 35.4L6.47 32.09Z" fill="white" stroke="black" stroke-width="0.5" stroke-linecap="round" stroke-linejoin="round"/>
<path d="M48.43 13.34C48.43 14.202 48.0876 15.0286 47.4781 15.6381C46.8686 16.2476 46.042 16.59 45.18 16.59C43.39 16.59 41.32 13.15 41.32 11.35C41.32 9.55001 43.39 10.09 45.18 10.09C46.0412 10.0926 46.8663 10.4359 47.4752 11.0448C48.0841 11.6537 48.4274 12.4789 48.43 13.34Z" fill="black" stroke="black" stroke-width="0.75" stroke-linecap="round" stroke-linejoin="round"/>
<path d="M41.98 13.91C43.0293 13.91 43.88 13.0593 43.88 12.01C43.88 10.9607 43.0293 10.11 41.98 10.11C40.9307 10.11 40.08 10.9607 40.08 12.01C40.08 13.0593 40.9307 13.91 41.98 13.91Z" fill="black" stroke="black" stroke-width="0.75" stroke-linecap="round" stroke-linejoin="round"/>
<path d="M48.71 17.92C49.7593 17.92 50.61 17.0693 50.61 16.02C50.61 14.9707 49.7593 14.12 48.71 14.12C47.6607 14.12 46.81 14.9707 46.81 16.02C46.81 17.0693 47.6607 17.92 48.71 17.92Z" fill="black" stroke="black" stroke-width="0.75" stroke-linecap="round" stroke-linejoin="round"/>
<path d="M47.14 19.81C48.1893 19.81 49.04 18.9593 49.04 17.91C49.04 16.8607 48.1893 16.01 47.14 16.01C46.0907 16.01 45.24 16.8607 45.24 17.91C45.24 18.9593 46.0907 19.81 47.14 19.81Z" fill="black" stroke="black" stroke-width="0.75" stroke-linecap="round" stroke-linejoin="round"/>
<path d="M48.07 11.78C48.5836 11.78 49 11.3636 49 10.85C49 10.3364 48.5836 9.92 48.07 9.92C47.5564 9.92 47.14 10.3364 47.14 10.85C47.14 11.3636 47.5564 11.78 48.07 11.78Z" fill="black" stroke="black" stroke-width="0.75" stroke-linecap="round" stroke-linejoin="round"/>
<path d="M50.93 10.78C51.5762 10.78 52.1 10.2562 52.1 9.61C52.1 8.96383 51.5762 8.44 50.93 8.44C50.2838 8.44 49.76 8.96383 49.76 9.61C49.76 10.2562 50.2838 10.78 50.93 10.78Z" fill="black" stroke="black" stroke-width="0.75" stroke-linecap="round" stroke-linejoin="round"/>
<path d="M50.29 12.69C50.9583 12.69 51.5 12.1483 51.5 11.48C51.5 10.8117 50.9583 10.27 50.29 10.27C49.6217 10.27 49.08 10.8117 49.08 11.48C49.08 12.1483 49.6217 12.69 50.29 12.69Z" fill="black" stroke="black" stroke-width="0.75" stroke-linecap="round" stroke-linejoin="round"/>
<path d="M52.65 12.59C53.263 12.59 53.76 12.093 53.76 11.48C53.76 10.867 53.263 10.37 52.65 10.37C52.037 10.37 51.54 10.867 51.54 11.48C51.54 12.093 52.037 12.59 52.65 12.59Z" fill="black" stroke="black" stroke-width="0.75" stroke-linecap="round" stroke-linejoin="round"/>
<path d="M50.6 8.70001C51.1191 8.70001 51.54 8.27916 51.54 7.76001C51.54 7.24086 51.1191 6.82001 50.6 6.82001C50.0809 6.82001 49.66 7.24086 49.66 7.76001C49.66 8.27916 50.0809 8.70001 50.6 8.70001Z" fill="black" stroke="black" stroke-width="0.75" stroke-linecap="round" stroke-linejoin="round"/>
<path d="M49 7.76C49.5191 7.76 49.94 7.33915 49.94 6.82C49.94 6.30086 49.5191 5.88 49 5.88C48.4808 5.88 48.06 6.30086 48.06 6.82C48.06 7.33915 48.4808 7.76 49 7.76Z" fill="black" stroke="black" stroke-width="0.75" stroke-linecap="round" stroke-linejoin="round"/>
<path d="M49.93 14.16C50.4768 14.16 50.92 13.7168 50.92 13.17C50.92 12.6232 50.4768 12.18 49.93 12.18C49.3832 12.18 48.94 12.6232 48.94 13.17C48.94 13.7168 49.3832 14.16 49.93 14.16Z" fill="black" stroke="black" stroke-width="0.75" stroke-linecap="round" stroke-linejoin="round"/>
<path d="M48.24 10.9C49.1402 10.9 49.87 10.1702 49.87 9.27C49.87 8.36978 49.1402 7.64 48.24 7.64C47.3398 7.64 46.61 8.36978 46.61 9.27C46.61 10.1702 47.3398 10.9 48.24 10.9Z" fill="black" stroke="black" stroke-width="0.75" stroke-linecap="round" stroke-linejoin="round"/>
<path d="M33.21 32.83C30.4366 34.1159 27.5639 35.1761 24.62 36L26.69 38.52C26.69 38.52 32.69 38.29 36.2 36.07" fill="#252525"/>
<path d="M33.21 32.83C30.4366 34.1159 27.5639 35.1761 24.62 36L26.69 38.52C26.69 38.52 32.69 38.29 36.2 36.07" stroke="black" stroke-width="0.75" stroke-linecap="round" stroke-linejoin="round"/>
</svg>
