<svg width="57" height="94" viewBox="0 0 57 94" fill="none" xmlns="http://www.w3.org/2000/svg">
<path d="M1.60001 73.57L19.72 62.94V32.56L1.60001 43.19V73.57Z" fill="#CACACA" stroke="black" stroke-width="0.5" stroke-linecap="round" stroke-linejoin="round"/>
<path d="M0.390015 44.29L1.60001 44.98V73.57L0.390015 72.98V44.29Z" fill="#CACACA" stroke="black" stroke-width="0.5" stroke-linecap="round" stroke-linejoin="round"/>
<path d="M22.58 71.04L39.54 61.18V41.91L22.58 51.77V71.04Z" fill="#EAEAEA" stroke="black" stroke-width="0.5" stroke-linecap="round" stroke-linejoin="round"/>
<path d="M56.61 54.5V51.7H22.58V53.62L39.65 63.48L56.61 53.62" fill="#EAEAEA"/>
<path d="M56.61 54.5V51.7H22.58V53.62L39.65 63.48L56.61 53.62" stroke="black" stroke-width="0.5" stroke-linecap="round" stroke-linejoin="round"/>
<path d="M39.65 82.75L56.61 72.89V53.62L39.65 63.48V82.75Z" fill="#EAEAEA" stroke="black" stroke-width="0.5" stroke-linecap="round" stroke-linejoin="round"/>
<path d="M56.61 51.7L39.54 41.84L22.58 51.7L39.65 61.56L56.61 51.7Z" fill="#EAEAEA" stroke="black" stroke-width="0.5" stroke-linecap="round" stroke-linejoin="round"/>
<path d="M49.5 24.36C48.4705 23.4471 47.3398 22.6553 46.13 22C44.6993 21.1182 43.0395 20.6798 41.36 20.74C40.0234 19.8399 38.4838 19.2866 36.88 19.13C35.65 18.99 32.94 15.55 32.51 14.43C31.8 12.57 29.51 5.05 29.69 5.84L26.86 6.4C26.9124 10.0276 27.61 13.6168 28.92 17C30.3853 20.7165 32.5589 24.1128 35.32 27C35.1924 29.0127 35.3541 31.0332 35.8 33C36.42 37 35.8 39.68 36.05 41.46C21.74 48.46 18.54 52.59 20.13 72.32L23.94 74.44C25.78 59 25.68 57.19 35.2 52C30.37 58.22 31 65.8 30.79 78.61L34.6 80.72C37.81 63.55 37.09 61.56 42.16 57.08C45.66 53.97 49.78 53.56 49.36 48.9C49.3821 47.7715 49.3353 46.6428 49.22 45.52C50.94 43.38 52.69 40.52 52.74 37.97C52.86 30.22 51.93 26.47 49.5 24.36Z" fill="#252525" stroke="black" stroke-width="0.75" stroke-linecap="round" stroke-linejoin="round"/>
<path d="M20.13 72.27C10.79 77.07 16.89 79.27 23.94 74.39L20.13 72.27Z" fill="white" stroke="black" stroke-width="0.75" stroke-linecap="round" stroke-linejoin="round"/>
<path d="M30.79 78.61C24.66 81.43 25.24 87.37 34.6 80.72L30.79 78.61Z" fill="white" stroke="black" stroke-width="0.75" stroke-linecap="round" stroke-linejoin="round"/>
<path d="M51.3 53.34V50.78L0.390015 42.53V44.29L33.18 63.16L51.3 52.54" fill="#DEDEDE"/>
<path d="M51.3 53.34V50.78L0.390015 42.53V44.29L33.18 63.16L51.3 52.54" stroke="black" stroke-width="0.5" stroke-linecap="round" stroke-linejoin="round"/>
<path d="M33.18 93.54L51.3 82.92V52.54L33.18 63.16V93.54Z" fill="#CACACA" stroke="black" stroke-width="0.5" stroke-linecap="round" stroke-linejoin="round"/>
<path d="M51.3 50.78L18.52 31.91L0.390015 42.53L33.18 61.41L51.3 50.78Z" fill="#EAEAEA" stroke="black" stroke-width="0.5" stroke-linecap="round" stroke-linejoin="round"/>
<path d="M33.18 93.54L31.98 92.94V62.56L33.18 63.16V93.54Z" fill="#CACACA" stroke="black" stroke-width="0.5" stroke-linecap="round" stroke-linejoin="round"/>
<path d="M40.74 47.67L28.11 55.08L19.49 50.13L32.13 42.72L40.74 47.67Z" fill="white" stroke="black" stroke-width="0.5" stroke-linecap="round" stroke-linejoin="round"/>
<path d="M30.12 41.85L17.48 49.26L8.87 44.31L21.51 36.9L30.12 41.85Z" fill="white" stroke="black" stroke-width="0.5" stroke-linecap="round" stroke-linejoin="round"/>
<path d="M42.74 47.12C38.12 50.67 40.99 53.84 45.93 49.05L42.74 47.12Z" fill="white" stroke="black" stroke-width="0.75" stroke-linecap="round" stroke-linejoin="round"/>
<path d="M29.69 5.82C30.83 -1.91 25.8 0.399998 26.86 6.38L29.69 5.82Z" fill="white" stroke="black" stroke-width="0.75" stroke-linecap="round" stroke-linejoin="round"/>
<path d="M39.13 14.05C38.13 11.39 38.91 11.56 39.39 10.26C39.39 10.26 38.13 8.58 43.2 8.55C43.2 8.55 43 6.35 47.2 10.15L45.2 11.85L40.2 12.14L39.13 14.05Z" fill="black" stroke="black" stroke-width="0.75" stroke-linecap="round" stroke-linejoin="round"/>
<path d="M40.3 21.91C40.2647 22.3563 40.2046 22.8003 40.12 23.24C39.93 24.54 44.6 25.51 45.18 22.64C45.76 19.77 46.07 20.87 47.18 19.28C48.69 17.05 48.54 13.28 46.05 12.15C43.56 11.02 40.9 10.9 39.86 11.95C39.77 12.04 39.01 14.6 38.15 17.21C37.9599 17.6576 37.8652 18.1399 37.8719 18.6261C37.8786 19.1123 37.9865 19.5918 38.1888 20.034C38.391 20.4762 38.6833 20.8714 39.0468 21.1944C39.4103 21.5174 39.8371 21.7611 40.3 21.91Z" fill="white" stroke="black" stroke-width="0.75" stroke-linecap="round" stroke-linejoin="round"/>
<path d="M42.89 12.8C42.9108 12.9947 42.9774 13.1816 43.0843 13.3456C43.1912 13.5096 43.3354 13.6459 43.5051 13.7435C43.6749 13.841 43.8653 13.897 44.0608 13.9068C44.2563 13.9167 44.4514 13.88 44.63 13.8C44.3674 14.6713 44.4097 15.606 44.75 16.45C45.12 17.28 45.75 15.36 45.75 15.36C45.75 15.36 45.14 20.36 45.75 18.11C46.55 15.05 47.75 15.79 47.75 16.83C47.87 19.41 45.42 20.51 45.48 21.62C45.55 22.94 46.3 21.07 47 20.36C47.9 19.43 48.44 19.66 49.1 17.58C50.1 14.33 48.7 12.04 48.23 11.77C47.76 11.5 48.6 10.77 46.57 9.77001C44.54 8.77001 41.81 8.17001 42.63 8.91001C42.63 8.91001 37.98 11.11 39.54 10.81C39.54 10.81 39.03 13.42 42.89 10.96C42.89 10.96 41.55 12.96 42.89 12.86V12.8Z" fill="black" stroke="black" stroke-width="0.75" stroke-linecap="round" stroke-linejoin="round"/>
<path d="M52.74 38C52.65 43.12 45.93 49.08 45.93 49.08L42.74 47.15C42.74 47.15 48.63 40.63 47.74 37.87C47.23 36.3 46.45 34.87 45.95 33.26" fill="#252525"/>
<path d="M52.74 38C52.65 43.12 45.93 49.08 45.93 49.08L42.74 47.15C42.74 47.15 48.63 40.63 47.74 37.87C47.23 36.3 46.45 34.87 45.95 33.26" stroke="black" stroke-width="0.75" stroke-linecap="round" stroke-linejoin="round"/>
<path d="M35.32 26.92C35.3967 25.8504 35.5674 24.7897 35.83 23.75L35.32 26.92Z" fill="#252525"/>
<path d="M35.32 26.92C35.3967 25.8504 35.5674 24.7897 35.83 23.75" stroke="black" stroke-width="0.75" stroke-linecap="round" stroke-linejoin="round"/>
</svg>
