<svg width="32" height="32" viewBox="0 0 32 32" fill="none" xmlns="http://www.w3.org/2000/svg">
<path d="M10.37 19.42C9.86171 19.42 9.36482 19.2693 8.94219 18.9869C8.51955 18.7045 8.19015 18.3031 7.99563 17.8335C7.80112 17.3639 7.75022 16.8471 7.84939 16.3486C7.94855 15.8501 8.19332 15.3922 8.55274 15.0327C8.91216 14.6733 9.37009 14.4285 9.86862 14.3294C10.3672 14.2302 10.8839 14.2811 11.3535 14.4756C11.8231 14.6701 12.2245 14.9996 12.5069 15.4222C12.7893 15.8448 12.94 16.3417 12.94 16.85C12.9374 17.5308 12.6658 18.183 12.1844 18.6644C11.703 19.1458 11.0508 19.4174 10.37 19.42Z" fill="white"/>
<path d="M10.37 14.53C10.8289 14.53 11.2774 14.6661 11.6589 14.921C12.0404 15.1759 12.3378 15.5382 12.5134 15.9622C12.689 16.3861 12.7349 16.8526 12.6454 17.3026C12.5559 17.7526 12.3349 18.166 12.0105 18.4905C11.686 18.8149 11.2727 19.0359 10.8226 19.1254C10.3726 19.2149 9.9061 19.169 9.48218 18.9934C9.05825 18.8178 8.69592 18.5204 8.44099 18.1389C8.18607 17.7574 8.05 17.3089 8.05 16.85C8.05 16.2347 8.29443 15.6446 8.72952 15.2095C9.1646 14.7744 9.7547 14.53 10.37 14.53ZM10.37 14.03C9.81226 14.03 9.26704 14.1954 8.8033 14.5053C8.33955 14.8151 7.9781 15.2555 7.76466 15.7708C7.55122 16.2861 7.49538 16.8531 7.60419 17.4002C7.713 17.9472 7.98158 18.4497 8.37596 18.844C8.77035 19.2384 9.27282 19.507 9.81985 19.6158C10.3669 19.7246 10.9339 19.6688 11.4492 19.4553C11.9645 19.2419 12.4049 18.8805 12.7147 18.4167C13.0246 17.953 13.19 17.4077 13.19 16.85C13.194 16.4772 13.124 16.1072 12.984 15.7616C12.8441 15.416 12.637 15.1016 12.3747 14.8365C12.1125 14.5715 11.8003 14.3611 11.4561 14.2175C11.112 14.0739 10.7429 14 10.37 14V14.03Z" fill="black"/>
<path d="M21.6 19.17C22.8813 19.17 23.92 18.1313 23.92 16.85C23.92 15.5687 22.8813 14.53 21.6 14.53C20.3187 14.53 19.28 15.5687 19.28 16.85C19.28 18.1313 20.3187 19.17 21.6 19.17Z" fill="white" stroke="black" stroke-width="0.5" stroke-linecap="round" stroke-linejoin="round"/>
<path d="M15.99 7.19H15.98C12.5172 7.19 9.71001 9.99718 9.71001 13.46V19.15C9.71001 22.6128 12.5172 25.42 15.98 25.42H15.99C19.4528 25.42 22.26 22.6128 22.26 19.15V13.46C22.26 9.99718 19.4528 7.19 15.99 7.19Z" fill="white" stroke="black" stroke-width="0.5" stroke-linecap="round" stroke-linejoin="round"/>
<path d="M16 5.73999C10.5 5.73999 6.94 10.4 9.72 16.53C9.72 16.53 9.61 10.11 12.12 10.11C12.12 10.11 12.72 10.81 16 10.81C19.28 10.81 19.87 10.11 19.87 10.11C22.39 10.11 22.28 16.53 22.28 16.53C25.05 10.4 21.48 5.73999 16 5.73999Z" fill="black" stroke="black" stroke-width="0.5" stroke-linecap="round" stroke-linejoin="round"/>
<path d="M16 26.53C15.3434 26.53 14.6932 26.4007 14.0866 26.1494C13.48 25.8981 12.9288 25.5298 12.4645 25.0655C12.0002 24.6012 11.6319 24.05 11.3806 23.4434C11.1293 22.8368 11 22.1866 11 21.53V20.24C11 19.02 11.79 18.58 12.56 18.15C12.8909 17.9789 13.2055 17.778 13.5 17.55C13.852 17.2425 14.1614 16.8894 14.42 16.5C14.83 15.92 15.22 15.37 16.03 15.37C16.84 15.37 17.22 15.92 17.64 16.5C17.8926 16.8939 18.2027 17.2479 18.56 17.55C18.853 17.7802 19.1678 17.9812 19.5 18.15C20.26 18.58 21.05 19.02 21.05 20.24V21.53C21.05 22.1908 20.9191 22.8451 20.6647 23.455C20.4103 24.0649 20.0375 24.6184 19.5679 25.0833C19.0983 25.5483 18.5412 25.9155 17.9288 26.1638C17.3164 26.4122 16.6608 26.5366 16 26.53Z" fill="#E2DCD6"/>
<path d="M16 15.62C17.11 15.62 17.29 16.88 18.37 17.75C19.45 18.62 20.77 18.75 20.77 20.24V21.53C20.7138 22.7586 20.1861 23.9183 19.2968 24.7678C18.4075 25.6174 17.2249 26.0914 15.995 26.0914C14.7651 26.0914 13.5825 25.6174 12.6932 24.7678C11.8039 23.9183 11.2762 22.7586 11.22 21.53V20.24C11.22 18.73 12.54 18.62 13.62 17.75C14.7 16.88 14.89 15.62 16 15.62ZM16 15.12C15.6175 15.1502 15.2494 15.2796 14.9321 15.4952C14.6147 15.7109 14.359 16.0055 14.19 16.35C13.9439 16.7221 13.6478 17.0585 13.31 17.35C13.0236 17.5657 12.7191 17.7564 12.4 17.92C11.9206 18.0922 11.5041 18.4045 11.2045 18.8165C10.905 19.2284 10.7361 19.7209 10.72 20.23V21.52C10.7792 22.8793 11.3608 24.1632 12.3436 25.1041C13.3264 26.0451 14.6344 26.5703 15.995 26.5703C17.3556 26.5703 18.6636 26.0451 19.6464 25.1041C20.6292 24.1632 21.2108 22.8793 21.27 21.52V20.24C21.2552 19.7305 21.0869 19.2374 20.7872 18.8252C20.4874 18.4131 20.0701 18.101 19.59 17.93C19.2741 17.7663 18.973 17.5756 18.69 17.36C18.3496 17.0712 18.0531 16.7343 17.81 16.36C17.6424 16.0136 17.3872 15.717 17.0697 15.4995C16.7523 15.282 16.3835 15.1512 16 15.12Z" fill="black"/>
<path d="M19 19.36C18.696 19.1961 18.4051 19.0089 18.13 18.8C17.7454 18.4532 17.4091 18.0563 17.13 17.62C16.72 17.04 16.49 16.74 16.02 16.74C15.55 16.74 15.31 17.04 14.9 17.62C14.6239 18.0585 14.2872 18.4557 13.9 18.8C13.6323 19.0143 13.3443 19.2019 13.04 19.36" stroke="black" stroke-width="0.5" stroke-linecap="round" stroke-linejoin="round"/>
<path d="M10.95 19.65L9.14 15.36" stroke="black" stroke-width="0.5" stroke-linecap="round" stroke-linejoin="round"/>
<path d="M20.98 19.65L22.84 14.93" stroke="black" stroke-width="0.5" stroke-linecap="round" stroke-linejoin="round"/>
<path d="M12.1 10.13C14.55 11.45 17.66 12.42 16.5 11.23C16.4748 11.2141 16.457 11.1888 16.4504 11.1598C16.4438 11.1307 16.4491 11.1002 16.465 11.075C16.4809 11.0498 16.5062 11.032 16.5353 11.0254C16.5643 11.0188 16.5948 11.0241 16.62 11.04C18.71 11.73 25 13.66 19.88 10.13" fill="black"/>
<path d="M12.1 10.13C14.55 11.45 17.66 12.42 16.5 11.23C16.4748 11.2141 16.457 11.1888 16.4504 11.1598C16.4438 11.1307 16.4491 11.1002 16.465 11.075C16.4809 11.0498 16.5062 11.032 16.5353 11.0254C16.5643 11.0188 16.5948 11.0241 16.62 11.04C18.71 11.73 25 13.66 19.88 10.13" stroke="black" stroke-width="0.5" stroke-linecap="round" stroke-linejoin="round"/>
</svg>
