<svg width="32" height="32" viewBox="0 0 32 32" fill="none" xmlns="http://www.w3.org/2000/svg">
<path d="M25.51 10.44L14.92 4.28001L13.17 3.26001V5.29001V18.16V18.83L13.75 19.16L24.34 25.32L26.09 26.34V24.31V11.45V10.77L25.51 10.44Z" fill="#B8B8B9" stroke="black" stroke-width="0.5" stroke-linejoin="round"/>
<path d="M24.93 11.45L14.33 5.29001V18.16L24.93 24.31V11.45Z" fill="white"/>
<path d="M24.93 22.62L15.74 17.28V6.10001L14.33 5.29001V16.46V18.16L15.74 18.97L24.93 24.31V22.62Z" fill="#DDDDDF"/>
<path d="M15.74 17.28V6.10001L14.33 5.29001V16.46V18.16L15.74 17.28Z" fill="#A6A6A7"/>
<path d="M24.93 11.45L14.33 5.29001V18.16L24.93 24.31V11.45Z" stroke="black" stroke-width="0.5" stroke-linecap="round" stroke-linejoin="round"/>
<path d="M9.01 16.62L7.13 18.24" stroke="black" stroke-width="0.5" stroke-linecap="round" stroke-linejoin="round"/>
<path opacity="0.6" d="M14.33 18.16L5.90997 25.44V12.57L14.33 5.29001" fill="white"/>
<path d="M5.90997 12.57L14.33 5.29001V18.16L5.90997 25.44V12.57Z" stroke="black" stroke-width="0.5" stroke-linecap="round" stroke-linejoin="round"/>
</svg>
