<svg width="142" height="142" viewBox="0 0 142 142" fill="none" xmlns="http://www.w3.org/2000/svg">
<circle cx="71" cy="71" r="71" fill="#B8B8B9"/>
<circle cx="70.5" cy="71.5" r="66.5" fill="#CACACA"/>
<circle cx="71" cy="71" r="63" fill="url(#paint0_radial)"/>
<rect x="49" y="22" width="44" height="29" rx="4" fill="black"/>
<path d="M56.342 41.138C56.342 41.598 56.2 41.934 55.916 42.146C55.632 42.358 55.242 42.464 54.746 42.464H54.212V44H53.696V39.866H54.746C55.254 39.866 55.646 39.972 55.922 40.184C56.202 40.396 56.342 40.714 56.342 41.138ZM55.784 41.144C55.784 40.844 55.696 40.626 55.52 40.49C55.348 40.35 55.112 40.28 54.812 40.28H54.212V42.05H54.794C55.106 42.05 55.348 41.982 55.52 41.846C55.696 41.71 55.784 41.476 55.784 41.144ZM57.5997 42.596C57.6117 42.944 57.7017 43.206 57.8697 43.382C58.0417 43.558 58.2577 43.646 58.5177 43.646C58.6737 43.646 58.8157 43.624 58.9437 43.58C59.0757 43.532 59.2157 43.46 59.3637 43.364L59.5977 43.7C59.4497 43.816 59.2797 43.906 59.0877 43.97C58.8997 44.034 58.7097 44.066 58.5177 44.066C58.0617 44.066 57.7057 43.918 57.4497 43.622C57.1977 43.322 57.0717 42.922 57.0717 42.422C57.0717 42.106 57.1277 41.824 57.2397 41.576C57.3517 41.324 57.5117 41.128 57.7197 40.988C57.9277 40.844 58.1697 40.772 58.4457 40.772C58.8457 40.772 59.1597 40.912 59.3877 41.192C59.6197 41.468 59.7357 41.846 59.7357 42.326C59.7357 42.418 59.7317 42.508 59.7237 42.596H57.5997ZM58.4517 41.186C58.2077 41.186 58.0097 41.274 57.8577 41.45C57.7057 41.622 57.6197 41.876 57.5997 42.212H59.2437C59.2397 41.88 59.1677 41.626 59.0277 41.45C58.8877 41.274 58.6957 41.186 58.4517 41.186ZM62.0313 43.22C62.0313 43.504 62.2053 43.646 62.5533 43.646C62.7173 43.646 62.8933 43.61 63.0813 43.538L63.2133 43.904C63.0133 44.012 62.7633 44.066 62.4633 44.066C62.1793 44.066 61.9513 43.988 61.7793 43.832C61.6113 43.676 61.5273 43.464 61.5273 43.196V39.968H60.5553V39.566H62.0313V43.22ZM65.593 39.362C65.705 39.362 65.795 39.396 65.863 39.464C65.931 39.528 65.965 39.612 65.965 39.716C65.965 39.82 65.931 39.906 65.863 39.974C65.795 40.038 65.705 40.07 65.593 40.07C65.485 40.07 65.397 40.038 65.329 39.974C65.265 39.906 65.233 39.82 65.233 39.716C65.233 39.612 65.265 39.528 65.329 39.464C65.397 39.396 65.485 39.362 65.593 39.362ZM65.995 43.598H66.883V44H64.519V43.598H65.491V41.24H64.549V40.838H65.995V43.598ZM70.7146 40.982C70.5946 41.022 70.4646 41.048 70.3246 41.06C70.1846 41.068 70.0066 41.072 69.7906 41.072C70.1586 41.24 70.3426 41.506 70.3426 41.87C70.3426 42.19 70.2366 42.45 70.0246 42.65C69.8126 42.846 69.5226 42.944 69.1546 42.944C68.9666 42.944 68.8086 42.922 68.6806 42.878C68.6326 42.914 68.5926 42.96 68.5606 43.016C68.5326 43.072 68.5186 43.128 68.5186 43.184C68.5186 43.364 68.6586 43.454 68.9386 43.454H69.5086C69.7166 43.454 69.9046 43.492 70.0726 43.568C70.2446 43.64 70.3786 43.742 70.4746 43.874C70.5746 44.006 70.6246 44.152 70.6246 44.312C70.6246 44.62 70.4926 44.856 70.2286 45.02C69.9686 45.188 69.5986 45.272 69.1186 45.272C68.6306 45.272 68.2866 45.196 68.0866 45.044C67.8866 44.892 67.7866 44.65 67.7866 44.318H68.2426C68.2426 44.45 68.2666 44.554 68.3146 44.63C68.3666 44.71 68.4546 44.768 68.5786 44.804C68.7066 44.844 68.8866 44.864 69.1186 44.864C69.4586 44.864 69.7086 44.82 69.8686 44.732C70.0326 44.644 70.1146 44.514 70.1146 44.342C70.1146 44.198 70.0486 44.086 69.9166 44.006C69.7846 43.93 69.6146 43.892 69.4066 43.892H68.8426C68.5826 43.892 68.3846 43.836 68.2486 43.724C68.1126 43.608 68.0446 43.464 68.0446 43.292C68.0446 43.192 68.0746 43.094 68.1346 42.998C68.1946 42.898 68.2806 42.812 68.3926 42.74C68.2126 42.648 68.0786 42.532 67.9906 42.392C67.9066 42.248 67.8646 42.074 67.8646 41.87C67.8646 41.658 67.9166 41.47 68.0206 41.306C68.1286 41.138 68.2766 41.008 68.4646 40.916C68.6566 40.82 68.8766 40.772 69.1246 40.772C69.4846 40.772 69.7586 40.752 69.9466 40.712C70.1346 40.672 70.3406 40.604 70.5646 40.508L70.7146 40.982ZM69.1186 41.144C68.8746 41.144 68.6906 41.21 68.5666 41.342C68.4426 41.47 68.3806 41.646 68.3806 41.87C68.3806 42.094 68.4426 42.274 68.5666 42.41C68.6946 42.542 68.8826 42.608 69.1306 42.608C69.3546 42.608 69.5246 42.544 69.6406 42.416C69.7606 42.284 69.8206 42.1 69.8206 41.864C69.8206 41.384 69.5866 41.144 69.1186 41.144ZM73.7243 40.772C73.8523 40.772 74.0003 40.794 74.1683 40.838L74.0963 41.912H73.6883V41.234H73.6583C73.1703 41.234 72.8243 41.582 72.6203 42.278V43.61H73.2623V44H71.6183V43.61H72.1163V41.228H71.6183V40.838H72.4943L72.5903 41.588C72.7183 41.316 72.8703 41.112 73.0463 40.976C73.2263 40.84 73.4523 40.772 73.7243 40.772ZM76.3919 40.772C76.8279 40.772 77.1619 40.92 77.3939 41.216C77.6299 41.508 77.7479 41.908 77.7479 42.416C77.7479 42.912 77.6279 43.312 77.3879 43.616C77.1519 43.916 76.8179 44.066 76.3859 44.066C75.9499 44.066 75.6139 43.92 75.3779 43.628C75.1419 43.332 75.0239 42.93 75.0239 42.422C75.0239 41.922 75.1419 41.522 75.3779 41.222C75.6179 40.922 75.9559 40.772 76.3919 40.772ZM76.3919 41.186C76.1159 41.186 75.9099 41.288 75.7739 41.492C75.6379 41.696 75.5699 42.006 75.5699 42.422C75.5699 42.838 75.6359 43.148 75.7679 43.352C75.9039 43.552 76.1099 43.652 76.3859 43.652C76.6619 43.652 76.8659 43.552 76.9979 43.352C77.1339 43.148 77.2019 42.836 77.2019 42.416C77.2019 42 77.1339 41.692 76.9979 41.492C76.8659 41.288 76.6639 41.186 76.3919 41.186ZM79.8636 43.652C80.1036 43.652 80.2936 43.606 80.4336 43.514C80.5736 43.422 80.6436 43.3 80.6436 43.148C80.6436 43.044 80.6256 42.96 80.5896 42.896C80.5536 42.828 80.4816 42.768 80.3736 42.716C80.2656 42.66 80.1016 42.604 79.8816 42.548C79.5136 42.456 79.2416 42.346 79.0656 42.218C78.8896 42.086 78.8016 41.892 78.8016 41.636C78.8016 41.372 78.9116 41.162 79.1316 41.006C79.3516 40.85 79.6416 40.772 80.0016 40.772C80.4416 40.772 80.8256 40.888 81.1536 41.12L80.9256 41.468C80.7936 41.376 80.6556 41.306 80.5116 41.258C80.3676 41.206 80.2016 41.18 80.0136 41.18C79.5576 41.18 79.3296 41.318 79.3296 41.594C79.3296 41.69 79.3536 41.768 79.4016 41.828C79.4536 41.888 79.5356 41.942 79.6476 41.99C79.7636 42.034 79.9356 42.088 80.1636 42.152C80.5076 42.244 80.7636 42.362 80.9316 42.506C81.1036 42.646 81.1896 42.852 81.1896 43.124C81.1896 43.44 81.0616 43.676 80.8056 43.832C80.5496 43.988 80.2356 44.066 79.8636 44.066C79.3676 44.066 78.9556 43.924 78.6276 43.64L78.9096 43.31C79.0376 43.414 79.1836 43.498 79.3476 43.562C79.5116 43.622 79.6836 43.652 79.8636 43.652ZM83.5873 40.772C84.0233 40.772 84.3573 40.92 84.5893 41.216C84.8253 41.508 84.9433 41.908 84.9433 42.416C84.9433 42.912 84.8233 43.312 84.5833 43.616C84.3473 43.916 84.0133 44.066 83.5813 44.066C83.1453 44.066 82.8093 43.92 82.5732 43.628C82.3373 43.332 82.2193 42.93 82.2193 42.422C82.2193 41.922 82.3373 41.522 82.5732 41.222C82.8133 40.922 83.1513 40.772 83.5873 40.772ZM83.5873 41.186C83.3113 41.186 83.1053 41.288 82.9693 41.492C82.8333 41.696 82.7653 42.006 82.7653 42.422C82.7653 42.838 82.8313 43.148 82.9633 43.352C83.0993 43.552 83.3053 43.652 83.5813 43.652C83.8573 43.652 84.0613 43.552 84.1933 43.352C84.3293 43.148 84.3973 42.836 84.3973 42.416C84.3973 42 84.3293 41.692 84.1933 41.492C84.0613 41.288 83.8593 41.186 83.5873 41.186Z" fill="white"/>
<path fill-rule="evenodd" clip-rule="evenodd" d="M91.9189 97.0692L91.7429 97.3786H97.3777L100.152 91.104L100.196 91.2806L102.881 97.3786H108.649L103.497 87.304L108.209 77.8057H102.397L100.196 83.1514L100.152 83.3281L97.8627 77.8057H92.0513L96.8054 87.304L91.9189 97.0692Z" fill="black"/>
<path fill-rule="evenodd" clip-rule="evenodd" d="M86.1069 88.9826C85.7992 90.0436 85.3586 91.104 84.8748 91.9006C84.4779 92.4299 83.7733 92.8721 83.2015 92.9604H83.0698C82.2772 92.9604 81.3971 92.165 80.7811 90.6624C80.1644 89.116 79.8555 87.4368 79.8555 85.7582C79.8555 84.5218 80.1644 83.6374 80.7811 83.0192C81.2205 82.4004 82.1442 82.0916 83.2015 82.0916C85.3586 82.0916 86.5482 83.328 86.5482 85.7582C86.5482 86.6858 86.4153 87.7456 86.1069 88.9826ZM91.919 83.328C91.6106 81.5611 90.906 80.2352 89.7619 79.3514C88.2646 78.115 85.9758 77.4962 83.2015 77.4962C80.1644 77.4962 77.7427 78.2478 76.3777 79.4848C75.1451 80.7218 74.3967 82.842 74.3967 85.3166V85.4488C74.3967 86.9952 74.6613 88.541 74.969 90.0436C75.2774 91.59 76.0694 92.9604 76.8184 94.153C77.4344 95.2572 78.4911 96.3176 79.5472 96.9358C80.4727 97.554 81.8365 97.8634 83.2015 97.8634C84.6108 97.8634 85.9758 97.3786 87.0313 96.6264C88.0886 96.0082 89.1459 94.9478 89.7619 93.7114C90.3779 92.5188 91.1269 91.104 91.4346 89.6026C91.6106 88.806 91.7872 88.0105 91.919 87.2163C92.007 86.5536 92.0513 85.9348 92.0513 85.3166C92.0513 84.6095 92.007 83.9462 91.919 83.328Z" fill="black"/>
<path fill-rule="evenodd" clip-rule="evenodd" d="M64.4296 82.3396C66.6746 82.3396 67.8794 83.7258 67.8794 86.067C67.8794 87.6135 67.2634 89.2933 66.2079 90.6624C65.723 91.3683 65.1069 91.9439 64.358 92.341C63.6545 92.7387 62.817 92.9604 61.9375 92.9604V83.456H56.7415V97.3786H60.8359C62.0686 97.3786 63.2582 97.2452 64.358 96.9358C65.459 96.6709 66.5162 96.2293 67.3963 95.6988C69.245 94.639 70.7429 93.0926 71.6667 91.2806C72.5911 89.4254 73.0323 87.4368 73.0323 85.6255C73.0323 83.1514 72.1504 81.0307 70.9183 79.7937C69.6851 78.6011 67.704 77.8057 65.2823 77.8057H56.7415L55.961 82.3396H64.4296Z" fill="black"/>
<path fill-rule="evenodd" clip-rule="evenodd" d="M44.6835 78.2161C47.1076 77.1405 54.284 77.668 54.284 77.668L53.6207 72.0049L49.7484 72C48.0708 72 46.4788 72.1297 45.2735 72.3021C44.0693 72.4318 42.8639 72.9069 41.8315 73.3381C40.7991 73.6402 39.7661 74.3741 38.863 74.9796C36.7545 76.4474 35.1655 78.693 34.2618 81.1104C33.4012 83.4852 33 86.0323 33 88.4509V97.3889H39.7661V89.3139H46.9092V97.3889H53.6207V79.0329H46.9092V83.6581H40.3688C40.9278 81.4125 42.2594 79.2917 44.6835 78.2161Z" fill="black"/>
<defs>
<radialGradient id="paint0_radial" cx="0" cy="0" r="1" gradientUnits="userSpaceOnUse" gradientTransform="translate(71 71) rotate(90) scale(63)">
<stop stop-color="#E23D3D"/>
<stop offset="0.489583" stop-color="#C61F1F"/>
<stop offset="1" stop-color="#A80000"/>
</radialGradient>
</defs>
</svg>
