<svg width="105" height="173" viewBox="0 0 105 173" fill="none" xmlns="http://www.w3.org/2000/svg">
<path d="M93.3438 55.4063L18.8829 12.0938L6.57819 4.92194V19.1954V109.688V114.398L10.6563 116.719L85.1172 160.031L97.4219 167.203V152.93V62.5079V57.7266L93.3438 55.4063Z" fill="#B8B8B9" stroke="black" stroke-width="0.75" stroke-linejoin="round"/>
<path d="M89.2657 62.5079L14.7344 19.1954V109.688L89.2657 152.93V62.5079Z" fill="#DDDDDF" stroke="black" stroke-width="0.75" stroke-linecap="round" stroke-linejoin="round"/>
<path d="M75.0625 71.2969L75.1328 73.6172L29.0781 47.1797L28.9375 45.2812" fill="#A6A6A7"/>
<path d="M75.0625 71.2969L75.1328 73.6172L29.0781 47.1797L28.9375 45.2812" stroke="black" stroke-width="0.75" stroke-linecap="round" stroke-linejoin="round"/>
<path d="M75.0625 89.2968L75.1328 91.5468L29.0781 65.1796L28.9375 63.2812" fill="#A6A6A7"/>
<path d="M75.0625 89.2968L75.1328 91.5468L29.0781 65.1796L28.9375 63.2812" stroke="black" stroke-width="0.75" stroke-linecap="round" stroke-linejoin="round"/>
<path d="M75.0625 107.297L75.1328 109.547L29.0781 83.1797L28.9375 81.2812" fill="#A6A6A7"/>
<path d="M75.0625 107.297L75.1328 109.547L29.0781 83.1797L28.9375 81.2812" stroke="black" stroke-width="0.75" stroke-linecap="round" stroke-linejoin="round"/>
<path d="M75.0625 125.297L75.1328 127.547L29.0781 101.18L28.9375 99.2812" fill="#A6A6A7"/>
<path d="M75.0625 125.297L75.1328 127.547L29.0781 101.18L28.9375 99.2812" stroke="black" stroke-width="0.75" stroke-linecap="round" stroke-linejoin="round"/>
</svg>
