<svg width="32" height="32" viewBox="0 0 32 32" fill="none" xmlns="http://www.w3.org/2000/svg">
<path d="M23.24 21.38C26.2113 21.38 28.62 18.9713 28.62 16C28.62 13.0287 26.2113 10.62 23.24 10.62C20.2687 10.62 17.86 13.0287 17.86 16C17.86 18.9713 20.2687 21.38 23.24 21.38Z" fill="white" stroke="black" stroke-width="0.5" stroke-linecap="round" stroke-linejoin="round"/>
<path d="M4.58001 10.57C5.64001 8.69001 9.58001 7.03001 11.58 7.10001C14.07 7.19001 14.11 8.23001 13.42 10.51L13 10C11.9135 10.5256 10.9337 11.2478 10.11 12.13C9.81001 13.43 9.71001 14.74 8.70001 14.81L8.10001 17.13C8.10001 17.13 8.30001 18.03 5.65001 18.5C5.52001 18.5 6.08001 17.76 5.85001 16.94C5.62001 16.12 3.44001 12.59 4.58001 10.57Z" fill="black"/>
<path d="M13 9.99999C12.8 9.82999 8.70002 9.53999 9.73002 11.26C10.11 11.89 9.16002 13.57 8.17002 13.64C8.13024 13.4451 8.01465 13.2739 7.84868 13.1642C7.68271 13.0545 7.47995 13.0152 7.28502 13.055C7.09009 13.0948 6.91894 13.2104 6.80923 13.3763C6.69952 13.5423 6.66024 13.7451 6.70002 13.94L7.26002 15.94C7.28873 16.0831 7.3591 16.2145 7.46231 16.3177C7.56551 16.4209 7.69692 16.4913 7.84002 16.52C7.84002 16.52 8.27002 17.9 5.65002 18.52L4.52002 20.52L9.82002 23.01C10.68 20.14 11.89 20.57 11.89 20.57C14.67 21.21 14.6 19.08 14.55 18.34C14.55 18.34 12.83 18.62 12.84 17.22L14.71 16.42L14.55 15.56C14.55 15.56 15.61 15.63 15.55 14.97C14.8996 13.2183 14.0436 11.55 13 9.99999V9.99999Z" fill="white"/>
<path d="M11.47 7.09999H11.6C14.09 7.18999 14.13 8.22999 13.44 10.51L13.1 10.11C14.0796 11.6007 14.8944 13.1933 15.53 14.86C15.53 15.41 14.84 15.45 14.59 15.45H14.51L14.67 16.31L12.8 17.11C12.8 18.11 13.66 18.25 14.17 18.25C14.2832 18.2572 14.3968 18.2572 14.51 18.25C14.51 18.89 14.61 20.6 12.79 20.6C12.4733 20.594 12.1581 20.5538 11.85 20.48C11.794 20.4681 11.736 20.4681 11.68 20.48C11.32 20.48 10.44 20.74 9.78 22.95L4.48 20.46L5.61 18.46C5.8463 17.9761 5.91659 17.4278 5.81 16.9C5.58 16.08 3.44 12.6 4.58 10.58C5.58 8.73999 9.41 7.10999 11.47 7.10999V7.09999ZM11.47 6.60999C9.17 6.60999 5.26 8.35999 4.14 10.33C3.14 12.15 4.35 14.84 5.01 16.28C5.15 16.6 5.29 16.9 5.33 17.03C5.40192 17.4369 5.34602 17.8561 5.17 18.23L4.05 20.16C4.0236 20.2234 4.01 20.2913 4.01 20.36C4.01 20.4286 4.0236 20.4966 4.05 20.56C4.06987 20.6281 4.1043 20.6911 4.15092 20.7447C4.19754 20.7982 4.25523 20.841 4.32 20.87L9.61 23.35C9.68256 23.3651 9.75744 23.3651 9.83 23.35C9.89586 23.3647 9.96414 23.3647 10.03 23.35C10.0959 23.321 10.1549 23.2784 10.2032 23.225C10.2515 23.1715 10.2879 23.1085 10.31 23.04C10.78 21.49 11.37 20.93 11.73 20.93H11.79C12.1172 21.0131 12.4525 21.0601 12.79 21.07C13.0909 21.0868 13.3919 21.0394 13.6729 20.9307C13.954 20.8221 14.2087 20.6548 14.42 20.44C14.6602 20.1236 14.8351 19.7627 14.9347 19.3782C15.0342 18.9936 15.0564 18.5932 15 18.2C14.9901 18.0735 14.9333 17.9552 14.8409 17.8683C14.7484 17.7814 14.6269 17.7321 14.5 17.73H14.42C14.3337 17.7413 14.2463 17.7413 14.16 17.73C13.8991 17.7526 13.639 17.6778 13.43 17.52C13.3912 17.4874 13.3604 17.4464 13.34 17.4L14.86 16.75C14.9657 16.7076 15.053 16.629 15.1061 16.5283C15.1592 16.4275 15.1748 16.3112 15.15 16.2L15.09 15.88C15.3464 15.8336 15.5832 15.7117 15.77 15.53C15.9451 15.3324 16.035 15.0736 16.02 14.81C15.5082 13.3125 14.8307 11.8769 14 10.53C14.41 9.12998 14.54 8.17999 14 7.52999C13.6976 7.20684 13.3244 6.95827 12.9097 6.80384C12.495 6.6494 12.0501 6.59331 11.61 6.63999L11.47 6.60999Z" fill="black"/>
<path d="M24.05 12.17C24.5537 12.6725 24.9534 13.2695 25.2261 13.9267C25.4987 14.5839 25.6391 15.2885 25.6391 16C25.6391 16.7115 25.4987 17.4161 25.2261 18.0733C24.9534 18.7305 24.5537 19.3275 24.05 19.83" fill="white"/>
<path d="M24.05 12.17C24.5537 12.6725 24.9534 13.2695 25.2261 13.9267C25.4987 14.5839 25.6391 15.2885 25.6391 16C25.6391 16.7115 25.4987 17.4161 25.2261 18.0733C24.9534 18.7305 24.5537 19.3275 24.05 19.83" stroke="black" stroke-width="0.5" stroke-linecap="round" stroke-linejoin="round"/>
<path d="M23 13.24C23.7303 13.9729 24.1404 14.9653 24.1404 16C24.1404 17.0346 23.7303 18.0271 23 18.76" fill="white"/>
<path d="M23 13.24C23.7303 13.9729 24.1404 14.9653 24.1404 16C24.1404 17.0346 23.7303 18.0271 23 18.76" stroke="black" stroke-width="0.5" stroke-linecap="round" stroke-linejoin="round"/>
<path d="M21.91 14.32C22.1313 14.5402 22.3069 14.802 22.4268 15.0903C22.5466 15.3786 22.6083 15.6878 22.6083 16C22.6083 16.3122 22.5466 16.6214 22.4268 16.9097C22.3069 17.198 22.1313 17.4598 21.91 17.68" fill="white"/>
<path d="M21.91 14.32C22.1313 14.5402 22.3069 14.802 22.4268 15.0903C22.5466 15.3786 22.6083 15.6878 22.6083 16C22.6083 16.3122 22.5466 16.6214 22.4268 16.9097C22.3069 17.198 22.1313 17.4598 21.91 17.68" stroke="black" stroke-width="0.5" stroke-linecap="round" stroke-linejoin="round"/>
<path d="M20.84 15.39C20.9205 15.4699 20.9843 15.565 21.0278 15.6697C21.0714 15.7744 21.0938 15.8866 21.0938 16C21.0938 16.1134 21.0714 16.2257 21.0278 16.3304C20.9843 16.435 20.9205 16.5301 20.84 16.61" fill="white"/>
<path d="M20.84 15.39C20.9205 15.4699 20.9843 15.565 21.0278 15.6697C21.0714 15.7744 21.0938 15.8866 21.0938 16C21.0938 16.1134 21.0714 16.2257 21.0278 16.3304C20.9843 16.435 20.9205 16.5301 20.84 16.61" stroke="black" stroke-width="0.5" stroke-linecap="round" stroke-linejoin="round"/>
</svg>
