<svg width="142" height="142" viewBox="0 0 142 142" fill="none" xmlns="http://www.w3.org/2000/svg">
<circle cx="71" cy="71" r="71" fill="#B8B8B9"/>
<circle cx="70.5" cy="71.5" r="66.5" fill="#CACACA"/>
<circle cx="71" cy="71" r="63" fill="url(#paint0_radial)"/>
<rect x="49" y="22" width="44" height="29" rx="4" fill="black"/>
<path d="M60.4094 29.032H58.2334V30.768C58.388 30.6773 58.54 30.616 58.6894 30.584C58.844 30.5467 59.0067 30.528 59.1774 30.528C59.636 30.528 60.0014 30.68 60.2734 30.984C60.5507 31.288 60.6894 31.712 60.6894 32.256C60.6894 32.6187 60.612 32.9387 60.4574 33.216C60.308 33.4933 60.092 33.7093 59.8094 33.864C59.5267 34.0133 59.1987 34.088 58.8254 34.088C58.212 34.088 57.6787 33.8693 57.2254 33.432L57.6414 33.024C57.9774 33.3653 58.372 33.536 58.8254 33.536C59.1934 33.536 59.4787 33.424 59.6814 33.2C59.884 32.976 59.9854 32.6533 59.9854 32.232C59.9854 31.816 59.8947 31.5173 59.7134 31.336C59.532 31.1493 59.2894 31.056 58.9854 31.056C58.8414 31.056 58.7107 31.0693 58.5934 31.096C58.476 31.1227 58.3214 31.1707 58.1294 31.24H57.5854V28.488H60.5054L60.4094 29.032ZM63.5583 28.4C63.8943 28.4 64.1903 28.464 64.4463 28.592C64.7023 28.7147 64.8996 28.8827 65.0383 29.096C65.1769 29.304 65.2463 29.5333 65.2463 29.784C65.2463 30.104 65.1423 30.384 64.9343 30.624C64.7263 30.8587 64.4729 31.0053 64.1743 31.064C64.5209 31.0907 64.8143 31.2213 65.0543 31.456C65.2996 31.6907 65.4223 32.0107 65.4223 32.416C65.4223 32.7307 65.3423 33.016 65.1823 33.272C65.0223 33.528 64.7956 33.728 64.5023 33.872C64.2143 34.016 63.8836 34.088 63.5103 34.088C63.1849 34.088 62.8703 34.0267 62.5663 33.904C62.2676 33.7813 62.0196 33.6 61.8223 33.36L62.2703 32.992C62.4196 33.168 62.6009 33.304 62.8143 33.4C63.0329 33.4907 63.2596 33.536 63.4943 33.536C63.8783 33.536 64.1769 33.4373 64.3903 33.24C64.6089 33.0373 64.7183 32.7627 64.7183 32.416C64.7183 31.7173 64.3369 31.368 63.5743 31.368H63.1183L63.1983 30.832H63.5263C63.8143 30.832 64.0596 30.752 64.2623 30.592C64.4649 30.4267 64.5663 30.1867 64.5663 29.872C64.5663 29.5787 64.4676 29.352 64.2703 29.192C64.0783 29.0267 63.8303 28.944 63.5263 28.944C63.2969 28.944 63.0916 28.984 62.9103 29.064C62.7343 29.144 62.5503 29.272 62.3583 29.448L61.9903 29.04C62.4383 28.6133 62.9609 28.4 63.5583 28.4ZM70.3391 33.456V34H67.1631V33.456H68.5151V29.224L67.2591 29.984L66.9631 29.512L68.6031 28.488H69.1951V33.456H70.3391ZM73.688 29.696C74.7067 29.696 75.216 30.4267 75.216 31.888C75.216 32.5547 75.0773 33.088 74.8 33.488C74.5227 33.888 74.12 34.088 73.592 34.088C73.1333 34.088 72.76 33.928 72.472 33.608V35.616L71.8 35.696V29.784H72.376L72.432 30.376C72.5867 30.1573 72.7707 29.9893 72.984 29.872C73.2027 29.7547 73.4373 29.696 73.688 29.696ZM73.528 30.24C73.3147 30.24 73.1173 30.304 72.936 30.432C72.76 30.56 72.6053 30.72 72.472 30.912V33C72.584 33.1653 72.7227 33.296 72.888 33.392C73.0587 33.4827 73.2427 33.528 73.44 33.528C73.792 33.528 74.0533 33.3947 74.224 33.128C74.4 32.856 74.488 32.4427 74.488 31.888C74.488 31.3333 74.4107 30.92 74.256 30.648C74.1013 30.376 73.8587 30.24 73.528 30.24ZM78.4849 29.696C79.5035 29.696 80.0129 30.4267 80.0129 31.888C80.0129 32.5547 79.8742 33.088 79.5969 33.488C79.3195 33.888 78.9169 34.088 78.3889 34.088C77.9302 34.088 77.5569 33.928 77.2689 33.608V35.616L76.5969 35.696V29.784H77.1729L77.2289 30.376C77.3835 30.1573 77.5675 29.9893 77.7809 29.872C77.9995 29.7547 78.2342 29.696 78.4849 29.696ZM78.3249 30.24C78.1115 30.24 77.9142 30.304 77.7329 30.432C77.5569 30.56 77.4022 30.72 77.2689 30.912V33C77.3809 33.1653 77.5195 33.296 77.6849 33.392C77.8555 33.4827 78.0395 33.528 78.2369 33.528C78.5889 33.528 78.8502 33.3947 79.0209 33.128C79.1969 32.856 79.2849 32.4427 79.2849 31.888C79.2849 31.3333 79.2075 30.92 79.0529 30.648C78.8982 30.376 78.6555 30.24 78.3249 30.24ZM84.1698 29.696C84.4098 29.696 84.6044 29.7813 84.7538 29.952C84.9084 30.1173 84.9858 30.4213 84.9858 30.864V34H84.3698V30.976C84.3698 30.6827 84.3511 30.4853 84.3138 30.384C84.2764 30.2773 84.1858 30.224 84.0418 30.224C83.7698 30.224 83.5244 30.392 83.3058 30.728V34H82.6818V30.976C82.6818 30.6827 82.6631 30.4853 82.6258 30.384C82.5884 30.2773 82.4978 30.224 82.3538 30.224C82.0818 30.224 81.8364 30.392 81.6178 30.728V34H81.0018V29.784H81.5218L81.5698 30.28C81.6978 30.0933 81.8311 29.9493 81.9698 29.848C82.1138 29.7467 82.2844 29.696 82.4818 29.696C82.8764 29.696 83.1298 29.8827 83.2418 30.256C83.3698 30.0747 83.5058 29.936 83.6498 29.84C83.7938 29.744 83.9671 29.696 84.1698 29.696Z" fill="white"/>
<path d="M55.148 39.8C55.404 39.8 55.624 39.834 55.808 39.902C55.992 39.966 56.172 40.066 56.348 40.202L56.054 40.544C55.81 40.34 55.52 40.238 55.184 40.238C54.812 40.238 54.508 40.374 54.272 40.646C54.04 40.914 53.924 41.342 53.924 41.93C53.924 42.514 54.038 42.942 54.266 43.214C54.494 43.486 54.798 43.622 55.178 43.622C55.386 43.622 55.564 43.592 55.712 43.532C55.86 43.472 56.002 43.388 56.138 43.28L56.408 43.616C56.1 43.916 55.688 44.066 55.172 44.066C54.832 44.066 54.526 43.984 54.254 43.82C53.982 43.652 53.768 43.408 53.612 43.088C53.456 42.768 53.378 42.382 53.378 41.93C53.378 41.482 53.456 41.098 53.612 40.778C53.772 40.454 53.986 40.21 54.254 40.046C54.526 39.882 54.824 39.8 55.148 39.8ZM58.4037 40.772C58.8397 40.772 59.1737 40.92 59.4057 41.216C59.6417 41.508 59.7597 41.908 59.7597 42.416C59.7597 42.912 59.6397 43.312 59.3997 43.616C59.1637 43.916 58.8297 44.066 58.3977 44.066C57.9617 44.066 57.6257 43.92 57.3897 43.628C57.1537 43.332 57.0357 42.93 57.0357 42.422C57.0357 41.922 57.1537 41.522 57.3897 41.222C57.6297 40.922 57.9677 40.772 58.4037 40.772ZM58.4037 41.186C58.1277 41.186 57.9217 41.288 57.7857 41.492C57.6497 41.696 57.5817 42.006 57.5817 42.422C57.5817 42.838 57.6477 43.148 57.7797 43.352C57.9157 43.552 58.1217 43.652 58.3977 43.652C58.6737 43.652 58.8777 43.552 59.0097 43.352C59.1457 43.148 59.2137 42.836 59.2137 42.416C59.2137 42 59.1457 41.692 59.0097 41.492C58.8777 41.288 58.6757 41.186 58.4037 41.186ZM60.7953 40.838H61.2273L61.2693 41.282C61.3933 41.122 61.5493 40.998 61.7373 40.91C61.9293 40.818 62.1213 40.772 62.3133 40.772C62.9053 40.772 63.2013 41.084 63.2013 41.708V44H62.6973V42.08C62.6973 41.844 62.6833 41.664 62.6553 41.54C62.6313 41.416 62.5813 41.324 62.5053 41.264C62.4293 41.204 62.3133 41.174 62.1573 41.174C61.9853 41.174 61.8233 41.226 61.6713 41.33C61.5193 41.434 61.3953 41.558 61.2993 41.702V44H60.7953V40.838ZM64.795 42.596C64.807 42.944 64.897 43.206 65.065 43.382C65.237 43.558 65.453 43.646 65.713 43.646C65.869 43.646 66.011 43.624 66.139 43.58C66.271 43.532 66.411 43.46 66.559 43.364L66.793 43.7C66.645 43.816 66.475 43.906 66.283 43.97C66.095 44.034 65.905 44.066 65.713 44.066C65.257 44.066 64.901 43.918 64.645 43.622C64.393 43.322 64.267 42.922 64.267 42.422C64.267 42.106 64.323 41.824 64.435 41.576C64.547 41.324 64.707 41.128 64.915 40.988C65.123 40.844 65.365 40.772 65.641 40.772C66.041 40.772 66.355 40.912 66.583 41.192C66.815 41.468 66.931 41.846 66.931 42.326C66.931 42.418 66.927 42.508 66.919 42.596H64.795ZM65.647 41.186C65.403 41.186 65.205 41.274 65.053 41.45C64.901 41.622 64.815 41.876 64.795 42.212H66.439C66.435 41.88 66.363 41.626 66.223 41.45C66.083 41.274 65.891 41.186 65.647 41.186ZM69.4246 43.634C69.7006 43.634 69.9746 43.542 70.2466 43.358L70.4866 43.688C70.3546 43.804 70.1906 43.896 69.9946 43.964C69.7986 44.032 69.6086 44.066 69.4246 44.066C68.9566 44.066 68.5906 43.92 68.3266 43.628C68.0666 43.332 67.9366 42.934 67.9366 42.434C67.9366 42.118 67.9946 41.834 68.1106 41.582C68.2306 41.33 68.4026 41.132 68.6266 40.988C68.8506 40.844 69.1166 40.772 69.4246 40.772C69.8326 40.772 70.1846 40.896 70.4806 41.144L70.2346 41.474C69.9586 41.29 69.6866 41.198 69.4186 41.198C69.1346 41.198 68.9066 41.304 68.7346 41.516C68.5666 41.724 68.4826 42.03 68.4826 42.434C68.4826 42.838 68.5666 43.14 68.7346 43.34C68.9066 43.536 69.1366 43.634 69.4246 43.634ZM74.1023 43.838C73.9943 43.91 73.8623 43.966 73.7063 44.006C73.5543 44.046 73.4023 44.066 73.2503 44.066C72.9183 44.066 72.6583 43.98 72.4703 43.808C72.2823 43.632 72.1883 43.402 72.1883 43.118V41.234H71.4623V40.838H72.1883V40.124L72.6923 40.064V40.838H73.7903L73.7243 41.234H72.6923V43.112C72.6923 43.292 72.7403 43.426 72.8363 43.514C72.9323 43.602 73.0863 43.646 73.2983 43.646C73.5143 43.646 73.7163 43.596 73.9043 43.496L74.1023 43.838ZM77.4539 43.31C77.4539 43.434 77.4739 43.526 77.5139 43.586C77.5539 43.642 77.6199 43.684 77.7119 43.712L77.5859 44.072C77.2779 44.032 77.0859 43.882 77.0099 43.622C76.8979 43.766 76.7559 43.876 76.5839 43.952C76.4159 44.028 76.2279 44.066 76.0199 44.066C75.7039 44.066 75.4539 43.978 75.2699 43.802C75.0899 43.626 74.9999 43.39 74.9999 43.094C74.9999 42.77 75.1259 42.52 75.3779 42.344C75.6339 42.168 75.9999 42.08 76.4759 42.08H76.9439V41.822C76.9439 41.598 76.8799 41.438 76.7519 41.342C76.6239 41.242 76.4379 41.192 76.1939 41.192C75.9539 41.192 75.6799 41.246 75.3719 41.354L75.2339 40.97C75.6059 40.838 75.9519 40.772 76.2719 40.772C76.6559 40.772 76.9479 40.862 77.1479 41.042C77.3519 41.222 77.4539 41.472 77.4539 41.792V43.31ZM76.1459 43.688C76.3019 43.688 76.4499 43.648 76.5899 43.568C76.7339 43.488 76.8519 43.378 76.9439 43.238V42.428H76.4879C76.1519 42.428 75.9099 42.484 75.7619 42.596C75.6139 42.708 75.5399 42.872 75.5399 43.088C75.5399 43.488 75.7419 43.688 76.1459 43.688ZM78.7836 40.838H79.2156L79.2576 41.282C79.3816 41.122 79.5376 40.998 79.7256 40.91C79.9176 40.818 80.1096 40.772 80.3016 40.772C80.8936 40.772 81.1896 41.084 81.1896 41.708V44H80.6856V42.08C80.6856 41.844 80.6716 41.664 80.6436 41.54C80.6196 41.416 80.5696 41.324 80.4936 41.264C80.4176 41.204 80.3016 41.174 80.1456 41.174C79.9736 41.174 79.8116 41.226 79.6596 41.33C79.5076 41.434 79.3836 41.558 79.2876 41.702V44H78.7836V40.838ZM84.7812 39.566V44H84.3373L84.2893 43.586C84.1733 43.746 84.0393 43.866 83.8873 43.946C83.7353 44.026 83.5713 44.066 83.3953 44.066C82.9953 44.066 82.6933 43.92 82.4893 43.628C82.2893 43.336 82.1893 42.934 82.1893 42.422C82.1893 42.106 82.2393 41.824 82.3393 41.576C82.4393 41.324 82.5813 41.128 82.7653 40.988C82.9533 40.844 83.1733 40.772 83.4253 40.772C83.7733 40.772 84.0573 40.898 84.2773 41.15V39.506L84.7812 39.566ZM83.5573 41.18C83.2933 41.18 83.0893 41.284 82.9453 41.492C82.8053 41.7 82.7353 42.01 82.7353 42.422C82.7353 42.83 82.7993 43.14 82.9273 43.352C83.0593 43.56 83.2493 43.664 83.4973 43.664C83.7973 43.664 84.0573 43.496 84.2773 43.16V41.588C84.1893 41.456 84.0833 41.356 83.9593 41.288C83.8353 41.216 83.7013 41.18 83.5573 41.18ZM87.1849 40.772C87.6209 40.772 87.9549 40.92 88.1869 41.216C88.4229 41.508 88.5409 41.908 88.5409 42.416C88.5409 42.912 88.4209 43.312 88.1809 43.616C87.9449 43.916 87.6109 44.066 87.1789 44.066C86.7429 44.066 86.4069 43.92 86.1709 43.628C85.9349 43.332 85.8169 42.93 85.8169 42.422C85.8169 41.922 85.9349 41.522 86.1709 41.222C86.4109 40.922 86.7489 40.772 87.1849 40.772ZM87.1849 41.186C86.9089 41.186 86.7029 41.288 86.5669 41.492C86.4309 41.696 86.3629 42.006 86.3629 42.422C86.3629 42.838 86.4289 43.148 86.5609 43.352C86.6969 43.552 86.9029 43.652 87.1789 43.652C87.4549 43.652 87.6589 43.552 87.7909 43.352C87.9269 43.148 87.9949 42.836 87.9949 42.416C87.9949 42 87.9269 41.692 87.7909 41.492C87.6589 41.288 87.4569 41.186 87.1849 41.186Z" fill="white"/>
<path fill-rule="evenodd" clip-rule="evenodd" d="M91.9189 97.0692L91.7429 97.3786H97.3777L100.152 91.104L100.196 91.2806L102.881 97.3786H108.649L103.497 87.304L108.208 77.8057H102.397L100.196 83.1514L100.152 83.3281L97.8627 77.8057H92.0512L96.8054 87.304L91.9189 97.0692Z" fill="black"/>
<path fill-rule="evenodd" clip-rule="evenodd" d="M86.1069 88.9826C85.7992 90.0436 85.3585 91.104 84.8748 91.9006C84.4779 92.4299 83.7732 92.8721 83.2015 92.9604H83.0698C82.2771 92.9604 81.3971 92.165 80.781 90.6624C80.1644 89.116 79.8555 87.4368 79.8555 85.7582C79.8555 84.5218 80.1644 83.6374 80.781 83.0192C81.2205 82.4004 82.1442 82.0916 83.2015 82.0916C85.3585 82.0916 86.5481 83.328 86.5481 85.7582C86.5481 86.6858 86.4152 87.7456 86.1069 88.9826ZM91.9189 83.328C91.6106 81.5611 90.9059 80.2352 89.7619 79.3514C88.2646 78.115 85.9758 77.4962 83.2015 77.4962C80.1644 77.4962 77.7427 78.2478 76.3777 79.4848C75.145 80.7218 74.3967 82.842 74.3967 85.3166V85.4488C74.3967 86.9952 74.6613 88.541 74.969 90.0436C75.2773 91.59 76.0694 92.9604 76.8183 94.153C77.4344 95.2572 78.4911 96.3176 79.5471 96.9358C80.4727 97.554 81.8365 97.8634 83.2015 97.8634C84.6108 97.8634 85.9758 97.3786 87.0313 96.6264C88.0885 96.0082 89.1458 94.9478 89.7619 93.7114C90.3779 92.5188 91.1269 91.104 91.4346 89.6026C91.6106 88.806 91.7872 88.0105 91.9189 87.2163C92.0069 86.5536 92.0512 85.9348 92.0512 85.3166C92.0512 84.6095 92.0069 83.9462 91.9189 83.328Z" fill="black"/>
<path fill-rule="evenodd" clip-rule="evenodd" d="M64.4296 82.3396C66.6746 82.3396 67.8794 83.7258 67.8794 86.067C67.8794 87.6135 67.2634 89.2933 66.2079 90.6624C65.723 91.3683 65.1069 91.9439 64.358 92.341C63.6545 92.7387 62.817 92.9604 61.9375 92.9604V83.456H56.7415V97.3786H60.8359C62.0686 97.3786 63.2582 97.2452 64.358 96.9358C65.4589 96.6709 66.5162 96.2293 67.3963 95.6988C69.245 94.639 70.7429 93.0926 71.6667 91.2806C72.5911 89.4254 73.0323 87.4368 73.0323 85.6255C73.0323 83.1514 72.1504 81.0307 70.9183 79.7937C69.685 78.6011 67.704 77.8057 65.2823 77.8057H56.7415L55.961 82.3396H64.4296Z" fill="black"/>
<path fill-rule="evenodd" clip-rule="evenodd" d="M44.6835 78.2161C47.1076 77.1405 54.284 77.668 54.284 77.668L53.6207 72.0049L49.7484 72C48.0708 72 46.4788 72.1297 45.2735 72.3021C44.0693 72.4318 42.8639 72.9069 41.8315 73.3381C40.7991 73.6402 39.7661 74.3741 38.863 74.9796C36.7545 76.4474 35.1655 78.693 34.2618 81.1104C33.4012 83.4852 33 86.0323 33 88.4509V97.3889H39.7661V89.3139H46.9092V97.3889H53.6207V79.0329H46.9092V83.6581H40.3688C40.9278 81.4125 42.2594 79.2917 44.6835 78.2161Z" fill="black"/>
<defs>
<radialGradient id="paint0_radial" cx="0" cy="0" r="1" gradientUnits="userSpaceOnUse" gradientTransform="translate(71 71) rotate(90) scale(63)">
<stop stop-color="#426BFF"/>
<stop offset="1" stop-color="#0025A8"/>
</radialGradient>
</defs>
</svg>
