<svg width="142" height="142" viewBox="0 0 142 142" fill="none" xmlns="http://www.w3.org/2000/svg">
<circle cx="71" cy="71" r="71" fill="#B8B8B9"/>
<circle cx="70.5" cy="71.5" r="66.5" fill="#CACACA"/>
<circle cx="71" cy="71" r="63" fill="url(#paint0_radial)"/>
<rect x="49" y="22" width="44" height="29" rx="4" fill="black"/>
<path d="M53.912 40.37C53.912 40.398 53.924 40.572 53.948 40.892C53.972 41.212 53.984 41.558 53.984 41.93V44H53.498V39.866H54.206L55.688 43.514L55.676 43.298C55.636 42.806 55.616 42.352 55.616 41.936V39.866H56.102V44H55.37L53.912 40.37ZM58.4037 40.772C58.8397 40.772 59.1737 40.92 59.4057 41.216C59.6417 41.508 59.7597 41.908 59.7597 42.416C59.7597 42.912 59.6397 43.312 59.3997 43.616C59.1637 43.916 58.8297 44.066 58.3977 44.066C57.9617 44.066 57.6257 43.92 57.3897 43.628C57.1537 43.332 57.0357 42.93 57.0357 42.422C57.0357 41.922 57.1537 41.522 57.3897 41.222C57.6297 40.922 57.9677 40.772 58.4037 40.772ZM58.4037 41.186C58.1277 41.186 57.9217 41.288 57.7857 41.492C57.6497 41.696 57.5817 42.006 57.5817 42.422C57.5817 42.838 57.6477 43.148 57.7797 43.352C57.9157 43.552 58.1217 43.652 58.3977 43.652C58.6737 43.652 58.8777 43.552 59.0097 43.352C59.1457 43.148 59.2137 42.836 59.2137 42.416C59.2137 42 59.1457 41.692 59.0097 41.492C58.8777 41.288 58.6757 41.186 58.4037 41.186ZM62.9313 40.772C63.0593 40.772 63.2073 40.794 63.3753 40.838L63.3033 41.912H62.8953V41.234H62.8653C62.3773 41.234 62.0313 41.582 61.8273 42.278V43.61H62.4693V44H60.8253V43.61H61.3233V41.228H60.8253V40.838H61.7013L61.7973 41.588C61.9253 41.316 62.0773 41.112 62.2533 40.976C62.4333 40.84 62.6593 40.772 62.9313 40.772ZM66.475 40.772C66.655 40.772 66.801 40.836 66.913 40.964C67.029 41.088 67.087 41.316 67.087 41.648V44H66.625V41.732C66.625 41.512 66.611 41.364 66.583 41.288C66.555 41.208 66.487 41.168 66.379 41.168C66.175 41.168 65.991 41.294 65.827 41.546V44H65.359V41.732C65.359 41.512 65.345 41.364 65.317 41.288C65.289 41.208 65.221 41.168 65.113 41.168C64.909 41.168 64.725 41.294 64.561 41.546V44H64.099V40.838H64.489L64.525 41.21C64.621 41.07 64.721 40.962 64.825 40.886C64.933 40.81 65.061 40.772 65.209 40.772C65.505 40.772 65.695 40.912 65.779 41.192C65.875 41.056 65.977 40.952 66.085 40.88C66.193 40.808 66.323 40.772 66.475 40.772ZM70.2586 43.31C70.2586 43.434 70.2786 43.526 70.3186 43.586C70.3586 43.642 70.4246 43.684 70.5166 43.712L70.3906 44.072C70.0826 44.032 69.8906 43.882 69.8146 43.622C69.7026 43.766 69.5606 43.876 69.3886 43.952C69.2206 44.028 69.0326 44.066 68.8246 44.066C68.5086 44.066 68.2586 43.978 68.0746 43.802C67.8946 43.626 67.8046 43.39 67.8046 43.094C67.8046 42.77 67.9306 42.52 68.1826 42.344C68.4386 42.168 68.8046 42.08 69.2806 42.08H69.7486V41.822C69.7486 41.598 69.6846 41.438 69.5566 41.342C69.4286 41.242 69.2426 41.192 68.9986 41.192C68.7586 41.192 68.4846 41.246 68.1766 41.354L68.0386 40.97C68.4106 40.838 68.7566 40.772 69.0766 40.772C69.4606 40.772 69.7526 40.862 69.9526 41.042C70.1566 41.222 70.2586 41.472 70.2586 41.792V43.31ZM68.9506 43.688C69.1066 43.688 69.2546 43.648 69.3946 43.568C69.5386 43.488 69.6566 43.378 69.7486 43.238V42.428H69.2926C68.9566 42.428 68.7146 42.484 68.5666 42.596C68.4186 42.708 68.3446 42.872 68.3446 43.088C68.3446 43.488 68.5466 43.688 68.9506 43.688ZM72.8243 43.22C72.8243 43.504 72.9983 43.646 73.3463 43.646C73.5103 43.646 73.6863 43.61 73.8743 43.538L74.0063 43.904C73.8063 44.012 73.5563 44.066 73.2563 44.066C72.9723 44.066 72.7443 43.988 72.5723 43.832C72.4043 43.676 72.3203 43.464 72.3203 43.196V39.968H71.3483V39.566H72.8243V43.22Z" fill="white"/>
<path fill-rule="evenodd" clip-rule="evenodd" d="M91.9189 97.0692L91.7429 97.3786H97.3777L100.152 91.104L100.196 91.2806L102.881 97.3786H108.649L103.497 87.304L108.208 77.8057H102.397L100.196 83.1514L100.152 83.3281L97.8627 77.8057H92.0512L96.8054 87.304L91.9189 97.0692Z" fill="black"/>
<path fill-rule="evenodd" clip-rule="evenodd" d="M86.1069 88.9826C85.7992 90.0436 85.3586 91.104 84.8748 91.9006C84.4779 92.4299 83.7733 92.8721 83.2015 92.9604H83.0698C82.2772 92.9604 81.3971 92.165 80.7811 90.6624C80.1644 89.116 79.8555 87.4368 79.8555 85.7582C79.8555 84.5218 80.1644 83.6374 80.7811 83.0192C81.2205 82.4004 82.1442 82.0916 83.2015 82.0916C85.3586 82.0916 86.5482 83.328 86.5482 85.7582C86.5482 86.6858 86.4153 87.7456 86.1069 88.9826ZM91.919 83.328C91.6106 81.5611 90.906 80.2352 89.7619 79.3514C88.2646 78.115 85.9758 77.4962 83.2015 77.4962C80.1644 77.4962 77.7427 78.2478 76.3777 79.4848C75.1451 80.7218 74.3967 82.842 74.3967 85.3166V85.4488C74.3967 86.9952 74.6613 88.541 74.969 90.0436C75.2774 91.59 76.0694 92.9604 76.8184 94.153C77.4344 95.2572 78.4911 96.3176 79.5472 96.9358C80.4727 97.554 81.8365 97.8634 83.2015 97.8634C84.6108 97.8634 85.9758 97.3786 87.0313 96.6264C88.0886 96.0082 89.1459 94.9478 89.7619 93.7114C90.3779 92.5188 91.1269 91.104 91.4346 89.6026C91.6106 88.806 91.7872 88.0105 91.919 87.2163C92.007 86.5536 92.0513 85.9348 92.0513 85.3166C92.0513 84.6095 92.007 83.9462 91.919 83.328Z" fill="black"/>
<path fill-rule="evenodd" clip-rule="evenodd" d="M64.4296 82.3396C66.6746 82.3396 67.8794 83.7258 67.8794 86.067C67.8794 87.6135 67.2634 89.2933 66.2079 90.6624C65.723 91.3683 65.1069 91.9439 64.358 92.341C63.6545 92.7387 62.817 92.9604 61.9375 92.9604V83.456H56.7415V97.3786H60.8359C62.0686 97.3786 63.2582 97.2452 64.358 96.9358C65.4589 96.6709 66.5162 96.2293 67.3963 95.6988C69.245 94.639 70.7429 93.0926 71.6667 91.2806C72.5911 89.4254 73.0323 87.4368 73.0323 85.6255C73.0323 83.1514 72.1504 81.0307 70.9183 79.7937C69.685 78.6011 67.704 77.8057 65.2823 77.8057H56.7415L55.961 82.3396H64.4296Z" fill="black"/>
<path fill-rule="evenodd" clip-rule="evenodd" d="M44.6835 78.2161C47.1076 77.1405 54.284 77.668 54.284 77.668L53.6207 72.0049L49.7484 72C48.0708 72 46.4788 72.1297 45.2735 72.3021C44.0693 72.4318 42.8639 72.9069 41.8315 73.3381C40.7991 73.6402 39.7661 74.3741 38.863 74.9796C36.7545 76.4474 35.1655 78.693 34.2618 81.1104C33.4012 83.4852 33 86.0323 33 88.4509V97.3889H39.7661V89.3139H46.9092V97.3889H53.6207V79.0329H46.9092V83.6581H40.3688C40.9278 81.4125 42.2594 79.2917 44.6835 78.2161Z" fill="black"/>
<defs>
<radialGradient id="paint0_radial" cx="0" cy="0" r="1" gradientUnits="userSpaceOnUse" gradientTransform="translate(71 71) rotate(90) scale(63)">
<stop stop-color="#41E23D"/>
<stop offset="0.5" stop-color="#20C527"/>
<stop offset="1" stop-color="#00A811"/>
</radialGradient>
</defs>
</svg>
