<svg width="142" height="142" viewBox="0 0 142 142" fill="none" xmlns="http://www.w3.org/2000/svg">
<circle cx="71" cy="71" r="71" fill="#B8B8B9"/>
<circle cx="70.5" cy="71.5" r="66.5" fill="#CACACA"/>
<circle cx="71" cy="71" r="63" fill="url(#paint0_radial)"/>
<rect x="49" y="22" width="44" height="29" rx="4" fill="black"/>
<path d="M60.6574 29.8C60.6574 30.0613 60.5774 30.2907 60.4174 30.488C60.2574 30.6853 60.02 30.872 59.7054 31.048C60.0787 31.2027 60.3694 31.4053 60.5774 31.656C60.7854 31.9067 60.8894 32.1947 60.8894 32.52C60.8894 32.8187 60.812 33.088 60.6574 33.328C60.5027 33.568 60.2814 33.7547 59.9934 33.888C59.7054 34.0213 59.372 34.088 58.9934 34.088C58.6094 34.088 58.276 34.0213 57.9934 33.888C57.7107 33.7493 57.4947 33.5627 57.3454 33.328C57.2014 33.0933 57.1294 32.8293 57.1294 32.536C57.1294 31.9227 57.5 31.4427 58.2414 31.096C57.9374 30.952 57.7134 30.784 57.5694 30.592C57.4307 30.3947 57.3614 30.144 57.3614 29.84C57.3614 29.5253 57.444 29.2587 57.6094 29.04C57.7747 28.8213 57.9827 28.6613 58.2334 28.56C58.4894 28.4533 58.748 28.4 59.0094 28.4C59.292 28.4 59.5587 28.4507 59.8094 28.552C60.06 28.6533 60.2627 28.8107 60.4174 29.024C60.5774 29.232 60.6574 29.4907 60.6574 29.8ZM58.0174 29.848C58.0174 30.0507 58.0627 30.2133 58.1534 30.336C58.2494 30.4533 58.3747 30.5493 58.5294 30.624C58.684 30.6933 58.9187 30.7787 59.2334 30.88C59.5054 30.72 59.7 30.5653 59.8174 30.416C59.94 30.2613 60.0014 30.0667 60.0014 29.832C60.0014 29.5547 59.9134 29.336 59.7374 29.176C59.5667 29.0107 59.324 28.928 59.0094 28.928C58.6947 28.928 58.4494 29.008 58.2734 29.168C58.1027 29.328 58.0174 29.5547 58.0174 29.848ZM60.1774 32.536C60.1774 32.3013 60.1187 32.112 60.0014 31.968C59.884 31.8187 59.7294 31.7013 59.5374 31.616C59.3507 31.5307 59.0707 31.4213 58.6974 31.288C58.1267 31.5547 57.8414 31.9707 57.8414 32.536C57.8414 32.8507 57.94 33.0987 58.1374 33.28C58.3347 33.456 58.62 33.544 58.9934 33.544C59.3667 33.544 59.6574 33.4507 59.8654 33.264C60.0734 33.0773 60.1774 32.8347 60.1774 32.536ZM65.5423 33.456V34H62.3663V33.456H63.7183V29.224L62.4622 29.984L62.1663 29.512L63.8063 28.488H64.3983V33.456H65.5423ZM68.3551 28.4C68.6911 28.4 68.9871 28.464 69.2431 28.592C69.4991 28.7147 69.6965 28.8827 69.8351 29.096C69.9738 29.304 70.0431 29.5333 70.0431 29.784C70.0431 30.104 69.9391 30.384 69.7311 30.624C69.5231 30.8587 69.2698 31.0053 68.9711 31.064C69.3178 31.0907 69.6111 31.2213 69.8511 31.456C70.0965 31.6907 70.2191 32.0107 70.2191 32.416C70.2191 32.7307 70.1391 33.016 69.9791 33.272C69.8191 33.528 69.5925 33.728 69.2991 33.872C69.0111 34.016 68.6805 34.088 68.3071 34.088C67.9818 34.088 67.6671 34.0267 67.3631 33.904C67.0645 33.7813 66.8165 33.6 66.6191 33.36L67.0671 32.992C67.2165 33.168 67.3978 33.304 67.6111 33.4C67.8298 33.4907 68.0565 33.536 68.2911 33.536C68.6751 33.536 68.9738 33.4373 69.1871 33.24C69.4058 33.0373 69.5151 32.7627 69.5151 32.416C69.5151 31.7173 69.1338 31.368 68.3711 31.368H67.9151L67.9951 30.832H68.3231C68.6111 30.832 68.8565 30.752 69.0591 30.592C69.2618 30.4267 69.3631 30.1867 69.3631 29.872C69.3631 29.5787 69.2645 29.352 69.0671 29.192C68.8751 29.0267 68.6271 28.944 68.3231 28.944C68.0938 28.944 67.8885 28.984 67.7071 29.064C67.5311 29.144 67.3471 29.272 67.1551 29.448L66.7871 29.04C67.2351 28.6133 67.7578 28.4 68.3551 28.4ZM73.688 29.696C74.7067 29.696 75.216 30.4267 75.216 31.888C75.216 32.5547 75.0773 33.088 74.8 33.488C74.5227 33.888 74.12 34.088 73.592 34.088C73.1333 34.088 72.76 33.928 72.472 33.608V35.616L71.8 35.696V29.784H72.376L72.432 30.376C72.5867 30.1573 72.7707 29.9893 72.984 29.872C73.2027 29.7547 73.4373 29.696 73.688 29.696ZM73.528 30.24C73.3147 30.24 73.1173 30.304 72.936 30.432C72.76 30.56 72.6053 30.72 72.472 30.912V33C72.584 33.1653 72.7227 33.296 72.888 33.392C73.0587 33.4827 73.2427 33.528 73.44 33.528C73.792 33.528 74.0533 33.3947 74.224 33.128C74.4 32.856 74.488 32.4427 74.488 31.888C74.488 31.3333 74.4107 30.92 74.256 30.648C74.1013 30.376 73.8587 30.24 73.528 30.24ZM78.4849 29.696C79.5035 29.696 80.0129 30.4267 80.0129 31.888C80.0129 32.5547 79.8742 33.088 79.5969 33.488C79.3195 33.888 78.9169 34.088 78.3889 34.088C77.9302 34.088 77.5569 33.928 77.2689 33.608V35.616L76.5969 35.696V29.784H77.1729L77.2289 30.376C77.3835 30.1573 77.5675 29.9893 77.7809 29.872C77.9995 29.7547 78.2342 29.696 78.4849 29.696ZM78.3249 30.24C78.1115 30.24 77.9142 30.304 77.7329 30.432C77.5569 30.56 77.4022 30.72 77.2689 30.912V33C77.3809 33.1653 77.5195 33.296 77.6849 33.392C77.8555 33.4827 78.0395 33.528 78.2369 33.528C78.5889 33.528 78.8502 33.3947 79.0209 33.128C79.1969 32.856 79.2849 32.4427 79.2849 31.888C79.2849 31.3333 79.2075 30.92 79.0529 30.648C78.8982 30.376 78.6555 30.24 78.3249 30.24ZM84.1698 29.696C84.4098 29.696 84.6044 29.7813 84.7538 29.952C84.9084 30.1173 84.9858 30.4213 84.9858 30.864V34H84.3698V30.976C84.3698 30.6827 84.3511 30.4853 84.3138 30.384C84.2764 30.2773 84.1858 30.224 84.0418 30.224C83.7698 30.224 83.5244 30.392 83.3058 30.728V34H82.6818V30.976C82.6818 30.6827 82.6631 30.4853 82.6258 30.384C82.5884 30.2773 82.4978 30.224 82.3538 30.224C82.0818 30.224 81.8364 30.392 81.6178 30.728V34H81.0018V29.784H81.5218L81.5698 30.28C81.6978 30.0933 81.8311 29.9493 81.9698 29.848C82.1138 29.7467 82.2844 29.696 82.4818 29.696C82.8764 29.696 83.1298 29.8827 83.2418 30.256C83.3698 30.0747 83.5058 29.936 83.6498 29.84C83.7938 29.744 83.9671 29.696 84.1698 29.696Z" fill="white"/>
<path d="M53.966 42.944L53.636 44H53.12L54.47 39.866H55.13L56.474 44H55.934L55.604 42.944H53.966ZM55.466 42.512L54.788 40.31L54.104 42.512H55.466ZM58.4337 43.22C58.4337 43.504 58.6077 43.646 58.9557 43.646C59.1197 43.646 59.2957 43.61 59.4837 43.538L59.6157 43.904C59.4157 44.012 59.1657 44.066 58.8657 44.066C58.5817 44.066 58.3537 43.988 58.1817 43.832C58.0137 43.676 57.9297 43.464 57.9297 43.196V39.968H56.9577V39.566H58.4337V43.22ZM63.3093 43.838C63.2013 43.91 63.0693 43.966 62.9133 44.006C62.7613 44.046 62.6093 44.066 62.4573 44.066C62.1253 44.066 61.8653 43.98 61.6773 43.808C61.4893 43.632 61.3953 43.402 61.3953 43.118V41.234H60.6693V40.838H61.3953V40.124L61.8993 40.064V40.838H62.9973L62.9313 41.234H61.8993V43.112C61.8993 43.292 61.9473 43.426 62.0433 43.514C62.1393 43.602 62.2933 43.646 62.5053 43.646C62.7213 43.646 62.9233 43.596 63.1113 43.496L63.3093 43.838ZM65.599 40.772C66.035 40.772 66.369 40.92 66.601 41.216C66.837 41.508 66.955 41.908 66.955 42.416C66.955 42.912 66.835 43.312 66.595 43.616C66.359 43.916 66.025 44.066 65.593 44.066C65.157 44.066 64.821 43.92 64.585 43.628C64.349 43.332 64.231 42.93 64.231 42.422C64.231 41.922 64.349 41.522 64.585 41.222C64.825 40.922 65.163 40.772 65.599 40.772ZM65.599 41.186C65.323 41.186 65.117 41.288 64.981 41.492C64.845 41.696 64.777 42.006 64.777 42.422C64.777 42.838 64.843 43.148 64.975 43.352C65.111 43.552 65.317 43.652 65.593 43.652C65.869 43.652 66.073 43.552 66.205 43.352C66.341 43.148 66.409 42.836 66.409 42.416C66.409 42 66.341 41.692 66.205 41.492C66.073 41.288 65.871 41.186 65.599 41.186Z" fill="white"/>
<path fill-rule="evenodd" clip-rule="evenodd" d="M91.9189 97.0692L91.7429 97.3786H97.3777L100.152 91.104L100.196 91.2806L102.881 97.3786H108.649L103.497 87.304L108.208 77.8057H102.397L100.196 83.1514L100.152 83.3281L97.8627 77.8057H92.0512L96.8054 87.304L91.9189 97.0692Z" fill="black"/>
<path fill-rule="evenodd" clip-rule="evenodd" d="M86.1069 88.9826C85.7992 90.0436 85.3586 91.104 84.8748 91.9006C84.4779 92.4299 83.7733 92.8721 83.2015 92.9604H83.0698C82.2772 92.9604 81.3971 92.165 80.7811 90.6624C80.1644 89.116 79.8555 87.4368 79.8555 85.7582C79.8555 84.5218 80.1644 83.6374 80.7811 83.0192C81.2205 82.4004 82.1442 82.0916 83.2015 82.0916C85.3586 82.0916 86.5482 83.328 86.5482 85.7582C86.5482 86.6858 86.4153 87.7456 86.1069 88.9826ZM91.919 83.328C91.6106 81.5611 90.906 80.2352 89.7619 79.3514C88.2646 78.115 85.9758 77.4962 83.2015 77.4962C80.1644 77.4962 77.7427 78.2478 76.3777 79.4848C75.1451 80.7218 74.3967 82.842 74.3967 85.3166V85.4488C74.3967 86.9952 74.6613 88.541 74.969 90.0436C75.2774 91.59 76.0694 92.9604 76.8184 94.153C77.4344 95.2572 78.4911 96.3176 79.5472 96.9358C80.4727 97.554 81.8365 97.8634 83.2015 97.8634C84.6108 97.8634 85.9758 97.3786 87.0313 96.6264C88.0886 96.0082 89.1459 94.9478 89.7619 93.7114C90.3779 92.5188 91.1269 91.104 91.4346 89.6026C91.6106 88.806 91.7872 88.0105 91.919 87.2163C92.007 86.5536 92.0513 85.9348 92.0513 85.3166C92.0513 84.6095 92.007 83.9462 91.919 83.328Z" fill="black"/>
<path fill-rule="evenodd" clip-rule="evenodd" d="M64.4296 82.3396C66.6746 82.3396 67.8794 83.7258 67.8794 86.067C67.8794 87.6135 67.2634 89.2933 66.2079 90.6624C65.723 91.3683 65.1069 91.9439 64.358 92.341C63.6545 92.7387 62.817 92.9604 61.9375 92.9604V83.456H56.7415V97.3786H60.8359C62.0686 97.3786 63.2582 97.2452 64.358 96.9358C65.4589 96.6709 66.5162 96.2293 67.3963 95.6988C69.245 94.639 70.7429 93.0926 71.6667 91.2806C72.5911 89.4254 73.0323 87.4368 73.0323 85.6255C73.0323 83.1514 72.1504 81.0307 70.9183 79.7937C69.685 78.6011 67.704 77.8057 65.2823 77.8057H56.7415L55.961 82.3396H64.4296Z" fill="black"/>
<path fill-rule="evenodd" clip-rule="evenodd" d="M44.6835 78.2161C47.1076 77.1405 54.284 77.668 54.284 77.668L53.6207 72.0049L49.7484 72C48.0708 72 46.4788 72.1297 45.2735 72.3021C44.0693 72.4318 42.8639 72.9069 41.8315 73.3381C40.7991 73.6402 39.7661 74.3741 38.863 74.9796C36.7545 76.4474 35.1655 78.693 34.2618 81.1104C33.4012 83.4852 33 86.0323 33 88.4509V97.3889H39.7661V89.3139H46.9092V97.3889H53.6207V79.0329H46.9092V83.6581H40.3688C40.9278 81.4125 42.2594 79.2917 44.6835 78.2161Z" fill="black"/>
<defs>
<radialGradient id="paint0_radial" cx="0" cy="0" r="1" gradientUnits="userSpaceOnUse" gradientTransform="translate(71 71) rotate(90) scale(63)">
<stop stop-color="#FFCB44"/>
<stop offset="0.0001" stop-color="#FFCB44"/>
<stop offset="1" stop-color="#DA8300"/>
</radialGradient>
</defs>
</svg>
