<svg width="142" height="142" viewBox="0 0 142 142" fill="none" xmlns="http://www.w3.org/2000/svg">
<circle cx="71" cy="71" r="71" fill="#B8B8B9"/>
<circle cx="70.5" cy="71.5" r="66.5" fill="#CACACA"/>
<circle cx="71" cy="71" r="63" fill="url(#paint0_radial)"/>
<rect x="49" y="22" width="44" height="29" rx="4" fill="black"/>
<path d="M58.3469 33.456V34H55.1709V33.456H56.5229V29.224L55.2669 29.984L54.9709 29.512L56.6109 28.488H57.2029V33.456H58.3469ZM61.1598 28.4C61.4958 28.4 61.7918 28.464 62.0478 28.592C62.3038 28.7147 62.5011 28.8827 62.6398 29.096C62.7785 29.304 62.8478 29.5333 62.8478 29.784C62.8478 30.104 62.7438 30.384 62.5358 30.624C62.3278 30.8587 62.0745 31.0053 61.7758 31.064C62.1225 31.0907 62.4158 31.2213 62.6558 31.456C62.9011 31.6907 63.0238 32.0107 63.0238 32.416C63.0238 32.7307 62.9438 33.016 62.7838 33.272C62.6238 33.528 62.3971 33.728 62.1038 33.872C61.8158 34.016 61.4851 34.088 61.1118 34.088C60.7865 34.088 60.4718 34.0267 60.1678 33.904C59.8691 33.7813 59.6211 33.6 59.4238 33.36L59.8718 32.992C60.0211 33.168 60.2025 33.304 60.4158 33.4C60.6345 33.4907 60.8611 33.536 61.0958 33.536C61.4798 33.536 61.7785 33.4373 61.9918 33.24C62.2105 33.0373 62.3198 32.7627 62.3198 32.416C62.3198 31.7173 61.9385 31.368 61.1758 31.368H60.7198L60.7998 30.832H61.1278C61.4158 30.832 61.6611 30.752 61.8638 30.592C62.0665 30.4267 62.1678 30.1867 62.1678 29.872C62.1678 29.5787 62.0691 29.352 61.8718 29.192C61.6798 29.0267 61.4318 28.944 61.1278 28.944C60.8985 28.944 60.6931 28.984 60.5118 29.064C60.3358 29.144 60.1518 29.272 59.9598 29.448L59.5918 29.04C60.0398 28.6133 60.5625 28.4 61.1598 28.4ZM66.2047 28.4C66.7914 28.4 67.2367 28.6453 67.5407 29.136C67.85 29.6213 68.0047 30.3227 68.0047 31.24C68.0047 32.1627 67.85 32.8693 67.5407 33.36C67.2367 33.8453 66.7914 34.088 66.2047 34.088C65.618 34.088 65.17 33.8453 64.8607 33.36C64.5567 32.8693 64.4047 32.1627 64.4047 31.24C64.4047 30.3227 64.5567 29.6213 64.8607 29.136C65.17 28.6453 65.618 28.4 66.2047 28.4ZM66.2047 28.944C65.474 28.944 65.1087 29.7093 65.1087 31.24C65.1087 32.776 65.474 33.544 66.2047 33.544C66.9354 33.544 67.3007 32.776 67.3007 31.24C67.3007 29.7093 66.9354 28.944 66.2047 28.944ZM66.2047 30.72C66.354 30.72 66.4794 30.7707 66.5807 30.872C66.682 30.9733 66.7327 31.096 66.7327 31.24C66.7327 31.3893 66.682 31.5147 66.5807 31.616C66.4794 31.7173 66.354 31.768 66.2047 31.768C66.0554 31.768 65.93 31.7173 65.8287 31.616C65.7327 31.5147 65.6847 31.3893 65.6847 31.24C65.6847 31.096 65.7327 30.9733 65.8287 30.872C65.93 30.7707 66.0554 30.72 66.2047 30.72ZM72.6496 29.8C72.6496 30.0613 72.5696 30.2907 72.4096 30.488C72.2496 30.6853 72.0122 30.872 71.6976 31.048C72.0709 31.2027 72.3616 31.4053 72.5696 31.656C72.7776 31.9067 72.8816 32.1947 72.8816 32.52C72.8816 32.8187 72.8042 33.088 72.6496 33.328C72.4949 33.568 72.2736 33.7547 71.9856 33.888C71.6976 34.0213 71.3642 34.088 70.9856 34.088C70.6016 34.088 70.2682 34.0213 69.9856 33.888C69.7029 33.7493 69.4869 33.5627 69.3376 33.328C69.1936 33.0933 69.1216 32.8293 69.1216 32.536C69.1216 31.9227 69.4922 31.4427 70.2336 31.096C69.9296 30.952 69.7056 30.784 69.5616 30.592C69.4229 30.3947 69.3536 30.144 69.3536 29.84C69.3536 29.5253 69.4362 29.2587 69.6016 29.04C69.7669 28.8213 69.9749 28.6613 70.2256 28.56C70.4816 28.4533 70.7402 28.4 71.0016 28.4C71.2842 28.4 71.5509 28.4507 71.8016 28.552C72.0522 28.6533 72.2549 28.8107 72.4096 29.024C72.5696 29.232 72.6496 29.4907 72.6496 29.8ZM70.0096 29.848C70.0096 30.0507 70.0549 30.2133 70.1456 30.336C70.2416 30.4533 70.3669 30.5493 70.5216 30.624C70.6762 30.6933 70.9109 30.7787 71.2256 30.88C71.4976 30.72 71.6922 30.5653 71.8096 30.416C71.9322 30.2613 71.9936 30.0667 71.9936 29.832C71.9936 29.5547 71.9056 29.336 71.7296 29.176C71.5589 29.0107 71.3162 28.928 71.0016 28.928C70.6869 28.928 70.4416 29.008 70.2656 29.168C70.0949 29.328 70.0096 29.5547 70.0096 29.848ZM72.1696 32.536C72.1696 32.3013 72.1109 32.112 71.9936 31.968C71.8762 31.8187 71.7216 31.7013 71.5296 31.616C71.3429 31.5307 71.0629 31.4213 70.6896 31.288C70.1189 31.5547 69.8336 31.9707 69.8336 32.536C69.8336 32.8507 69.9322 33.0987 70.1296 33.28C70.3269 33.456 70.6122 33.544 70.9856 33.544C71.3589 33.544 71.6496 33.4507 71.8576 33.264C72.0656 33.0773 72.1696 32.8347 72.1696 32.536ZM76.0864 29.696C77.1051 29.696 77.6144 30.4267 77.6144 31.888C77.6144 32.5547 77.4758 33.088 77.1984 33.488C76.9211 33.888 76.5184 34.088 75.9904 34.088C75.5318 34.088 75.1584 33.928 74.8704 33.608V35.616L74.1984 35.696V29.784H74.7744L74.8304 30.376C74.9851 30.1573 75.1691 29.9893 75.3824 29.872C75.6011 29.7547 75.8358 29.696 76.0864 29.696ZM75.9264 30.24C75.7131 30.24 75.5158 30.304 75.3344 30.432C75.1584 30.56 75.0038 30.72 74.8704 30.912V33C74.9824 33.1653 75.1211 33.296 75.2864 33.392C75.4571 33.4827 75.6411 33.528 75.8384 33.528C76.1904 33.528 76.4518 33.3947 76.6224 33.128C76.7984 32.856 76.8864 32.4427 76.8864 31.888C76.8864 31.3333 76.8091 30.92 76.6544 30.648C76.4998 30.376 76.2571 30.24 75.9264 30.24ZM80.8833 29.696C81.902 29.696 82.4113 30.4267 82.4113 31.888C82.4113 32.5547 82.2726 33.088 81.9953 33.488C81.718 33.888 81.3153 34.088 80.7873 34.088C80.3286 34.088 79.9553 33.928 79.6673 33.608V35.616L78.9953 35.696V29.784H79.5713L79.6273 30.376C79.782 30.1573 79.966 29.9893 80.1793 29.872C80.398 29.7547 80.6326 29.696 80.8833 29.696ZM80.7233 30.24C80.51 30.24 80.3126 30.304 80.1313 30.432C79.9553 30.56 79.8006 30.72 79.6673 30.912V33C79.7793 33.1653 79.918 33.296 80.0833 33.392C80.254 33.4827 80.438 33.528 80.6353 33.528C80.9873 33.528 81.2486 33.3947 81.4193 33.128C81.5953 32.856 81.6833 32.4427 81.6833 31.888C81.6833 31.3333 81.606 30.92 81.4513 30.648C81.2966 30.376 81.054 30.24 80.7233 30.24ZM86.5682 29.696C86.8082 29.696 87.0029 29.7813 87.1522 29.952C87.3069 30.1173 87.3842 30.4213 87.3842 30.864V34H86.7682V30.976C86.7682 30.6827 86.7495 30.4853 86.7122 30.384C86.6749 30.2773 86.5842 30.224 86.4402 30.224C86.1682 30.224 85.9229 30.392 85.7042 30.728V34H85.0802V30.976C85.0802 30.6827 85.0615 30.4853 85.0242 30.384C84.9869 30.2773 84.8962 30.224 84.7522 30.224C84.4802 30.224 84.2349 30.392 84.0162 30.728V34H83.4002V29.784H83.9202L83.9682 30.28C84.0962 30.0933 84.2295 29.9493 84.3682 29.848C84.5122 29.7467 84.6829 29.696 84.8802 29.696C85.2749 29.696 85.5282 29.8827 85.6402 30.256C85.7682 30.0747 85.9042 29.936 86.0482 29.84C86.1922 29.744 86.3655 29.696 86.5682 29.696Z" fill="white"/>
<path d="M56.342 41.138C56.342 41.598 56.2 41.934 55.916 42.146C55.632 42.358 55.242 42.464 54.746 42.464H54.212V44H53.696V39.866H54.746C55.254 39.866 55.646 39.972 55.922 40.184C56.202 40.396 56.342 40.714 56.342 41.138ZM55.784 41.144C55.784 40.844 55.696 40.626 55.52 40.49C55.348 40.35 55.112 40.28 54.812 40.28H54.212V42.05H54.794C55.106 42.05 55.348 41.982 55.52 41.846C55.696 41.71 55.784 41.476 55.784 41.144ZM57.5997 42.596C57.6117 42.944 57.7017 43.206 57.8697 43.382C58.0417 43.558 58.2577 43.646 58.5177 43.646C58.6737 43.646 58.8157 43.624 58.9437 43.58C59.0757 43.532 59.2157 43.46 59.3637 43.364L59.5977 43.7C59.4497 43.816 59.2797 43.906 59.0877 43.97C58.8997 44.034 58.7097 44.066 58.5177 44.066C58.0617 44.066 57.7057 43.918 57.4497 43.622C57.1977 43.322 57.0717 42.922 57.0717 42.422C57.0717 42.106 57.1277 41.824 57.2397 41.576C57.3517 41.324 57.5117 41.128 57.7197 40.988C57.9277 40.844 58.1697 40.772 58.4457 40.772C58.8457 40.772 59.1597 40.912 59.3877 41.192C59.6197 41.468 59.7357 41.846 59.7357 42.326C59.7357 42.418 59.7317 42.508 59.7237 42.596H57.5997ZM58.4517 41.186C58.2077 41.186 58.0097 41.274 57.8577 41.45C57.7057 41.622 57.6197 41.876 57.5997 42.212H59.2437C59.2397 41.88 59.1677 41.626 59.0277 41.45C58.8877 41.274 58.6957 41.186 58.4517 41.186ZM62.0313 43.22C62.0313 43.504 62.2053 43.646 62.5533 43.646C62.7173 43.646 62.8933 43.61 63.0813 43.538L63.2133 43.904C63.0133 44.012 62.7633 44.066 62.4633 44.066C62.1793 44.066 61.9513 43.988 61.7793 43.832C61.6113 43.676 61.5273 43.464 61.5273 43.196V39.968H60.5553V39.566H62.0313V43.22ZM65.593 39.362C65.705 39.362 65.795 39.396 65.863 39.464C65.931 39.528 65.965 39.612 65.965 39.716C65.965 39.82 65.931 39.906 65.863 39.974C65.795 40.038 65.705 40.07 65.593 40.07C65.485 40.07 65.397 40.038 65.329 39.974C65.265 39.906 65.233 39.82 65.233 39.716C65.233 39.612 65.265 39.528 65.329 39.464C65.397 39.396 65.485 39.362 65.593 39.362ZM65.995 43.598H66.883V44H64.519V43.598H65.491V41.24H64.549V40.838H65.995V43.598ZM70.7146 40.982C70.5946 41.022 70.4646 41.048 70.3246 41.06C70.1846 41.068 70.0066 41.072 69.7906 41.072C70.1586 41.24 70.3426 41.506 70.3426 41.87C70.3426 42.19 70.2366 42.45 70.0246 42.65C69.8126 42.846 69.5226 42.944 69.1546 42.944C68.9666 42.944 68.8086 42.922 68.6806 42.878C68.6326 42.914 68.5926 42.96 68.5606 43.016C68.5326 43.072 68.5186 43.128 68.5186 43.184C68.5186 43.364 68.6586 43.454 68.9386 43.454H69.5086C69.7166 43.454 69.9046 43.492 70.0726 43.568C70.2446 43.64 70.3786 43.742 70.4746 43.874C70.5746 44.006 70.6246 44.152 70.6246 44.312C70.6246 44.62 70.4926 44.856 70.2286 45.02C69.9686 45.188 69.5986 45.272 69.1186 45.272C68.6306 45.272 68.2866 45.196 68.0866 45.044C67.8866 44.892 67.7866 44.65 67.7866 44.318H68.2426C68.2426 44.45 68.2666 44.554 68.3146 44.63C68.3666 44.71 68.4546 44.768 68.5786 44.804C68.7066 44.844 68.8866 44.864 69.1186 44.864C69.4586 44.864 69.7086 44.82 69.8686 44.732C70.0326 44.644 70.1146 44.514 70.1146 44.342C70.1146 44.198 70.0486 44.086 69.9166 44.006C69.7846 43.93 69.6146 43.892 69.4066 43.892H68.8426C68.5826 43.892 68.3846 43.836 68.2486 43.724C68.1126 43.608 68.0446 43.464 68.0446 43.292C68.0446 43.192 68.0746 43.094 68.1346 42.998C68.1946 42.898 68.2806 42.812 68.3926 42.74C68.2126 42.648 68.0786 42.532 67.9906 42.392C67.9066 42.248 67.8646 42.074 67.8646 41.87C67.8646 41.658 67.9166 41.47 68.0206 41.306C68.1286 41.138 68.2766 41.008 68.4646 40.916C68.6566 40.82 68.8766 40.772 69.1246 40.772C69.4846 40.772 69.7586 40.752 69.9466 40.712C70.1346 40.672 70.3406 40.604 70.5646 40.508L70.7146 40.982ZM69.1186 41.144C68.8746 41.144 68.6906 41.21 68.5666 41.342C68.4426 41.47 68.3806 41.646 68.3806 41.87C68.3806 42.094 68.4426 42.274 68.5666 42.41C68.6946 42.542 68.8826 42.608 69.1306 42.608C69.3546 42.608 69.5246 42.544 69.6406 42.416C69.7606 42.284 69.8206 42.1 69.8206 41.864C69.8206 41.384 69.5866 41.144 69.1186 41.144ZM73.7243 40.772C73.8523 40.772 74.0003 40.794 74.1683 40.838L74.0963 41.912H73.6883V41.234H73.6583C73.1703 41.234 72.8243 41.582 72.6203 42.278V43.61H73.2623V44H71.6183V43.61H72.1163V41.228H71.6183V40.838H72.4943L72.5903 41.588C72.7183 41.316 72.8703 41.112 73.0463 40.976C73.2263 40.84 73.4523 40.772 73.7243 40.772ZM76.3919 40.772C76.8279 40.772 77.1619 40.92 77.3939 41.216C77.6299 41.508 77.7479 41.908 77.7479 42.416C77.7479 42.912 77.6279 43.312 77.3879 43.616C77.1519 43.916 76.8179 44.066 76.3859 44.066C75.9499 44.066 75.6139 43.92 75.3779 43.628C75.1419 43.332 75.0239 42.93 75.0239 42.422C75.0239 41.922 75.1419 41.522 75.3779 41.222C75.6179 40.922 75.9559 40.772 76.3919 40.772ZM76.3919 41.186C76.1159 41.186 75.9099 41.288 75.7739 41.492C75.6379 41.696 75.5699 42.006 75.5699 42.422C75.5699 42.838 75.6359 43.148 75.7679 43.352C75.9039 43.552 76.1099 43.652 76.3859 43.652C76.6619 43.652 76.8659 43.552 76.9979 43.352C77.1339 43.148 77.2019 42.836 77.2019 42.416C77.2019 42 77.1339 41.692 76.9979 41.492C76.8659 41.288 76.6639 41.186 76.3919 41.186ZM79.8636 43.652C80.1036 43.652 80.2936 43.606 80.4336 43.514C80.5736 43.422 80.6436 43.3 80.6436 43.148C80.6436 43.044 80.6256 42.96 80.5896 42.896C80.5536 42.828 80.4816 42.768 80.3736 42.716C80.2656 42.66 80.1016 42.604 79.8816 42.548C79.5136 42.456 79.2416 42.346 79.0656 42.218C78.8896 42.086 78.8016 41.892 78.8016 41.636C78.8016 41.372 78.9116 41.162 79.1316 41.006C79.3516 40.85 79.6416 40.772 80.0016 40.772C80.4416 40.772 80.8256 40.888 81.1536 41.12L80.9256 41.468C80.7936 41.376 80.6556 41.306 80.5116 41.258C80.3676 41.206 80.2016 41.18 80.0136 41.18C79.5576 41.18 79.3296 41.318 79.3296 41.594C79.3296 41.69 79.3536 41.768 79.4016 41.828C79.4536 41.888 79.5356 41.942 79.6476 41.99C79.7636 42.034 79.9356 42.088 80.1636 42.152C80.5076 42.244 80.7636 42.362 80.9316 42.506C81.1036 42.646 81.1896 42.852 81.1896 43.124C81.1896 43.44 81.0616 43.676 80.8056 43.832C80.5496 43.988 80.2356 44.066 79.8636 44.066C79.3676 44.066 78.9556 43.924 78.6276 43.64L78.9096 43.31C79.0376 43.414 79.1836 43.498 79.3476 43.562C79.5116 43.622 79.6836 43.652 79.8636 43.652ZM83.5873 40.772C84.0233 40.772 84.3573 40.92 84.5893 41.216C84.8253 41.508 84.9433 41.908 84.9433 42.416C84.9433 42.912 84.8233 43.312 84.5833 43.616C84.3473 43.916 84.0133 44.066 83.5813 44.066C83.1453 44.066 82.8093 43.92 82.5732 43.628C82.3373 43.332 82.2193 42.93 82.2193 42.422C82.2193 41.922 82.3373 41.522 82.5732 41.222C82.8133 40.922 83.1513 40.772 83.5873 40.772ZM83.5873 41.186C83.3113 41.186 83.1053 41.288 82.9693 41.492C82.8333 41.696 82.7653 42.006 82.7653 42.422C82.7653 42.838 82.8313 43.148 82.9633 43.352C83.0993 43.552 83.3053 43.652 83.5813 43.652C83.8573 43.652 84.0613 43.552 84.1933 43.352C84.3293 43.148 84.3973 42.836 84.3973 42.416C84.3973 42 84.3293 41.692 84.1933 41.492C84.0613 41.288 83.8593 41.186 83.5873 41.186Z" fill="white"/>
<path fill-rule="evenodd" clip-rule="evenodd" d="M91.9189 97.0692L91.7429 97.3786H97.3777L100.152 91.104L100.196 91.2806L102.881 97.3786H108.649L103.497 87.304L108.208 77.8057H102.397L100.196 83.1514L100.152 83.3281L97.8627 77.8057H92.0512L96.8054 87.304L91.9189 97.0692Z" fill="black"/>
<path fill-rule="evenodd" clip-rule="evenodd" d="M86.1069 88.9826C85.7992 90.0436 85.3586 91.104 84.8748 91.9006C84.4779 92.4299 83.7733 92.8721 83.2015 92.9604H83.0698C82.2772 92.9604 81.3971 92.165 80.7811 90.6624C80.1644 89.116 79.8555 87.4368 79.8555 85.7582C79.8555 84.5218 80.1644 83.6374 80.7811 83.0192C81.2205 82.4004 82.1442 82.0916 83.2015 82.0916C85.3586 82.0916 86.5482 83.328 86.5482 85.7582C86.5482 86.6858 86.4153 87.7456 86.1069 88.9826ZM91.919 83.328C91.6106 81.5611 90.906 80.2352 89.7619 79.3514C88.2646 78.115 85.9758 77.4962 83.2015 77.4962C80.1644 77.4962 77.7427 78.2478 76.3777 79.4848C75.1451 80.7218 74.3967 82.842 74.3967 85.3166V85.4488C74.3967 86.9952 74.6613 88.541 74.969 90.0436C75.2774 91.59 76.0694 92.9604 76.8184 94.153C77.4344 95.2572 78.4911 96.3176 79.5472 96.9358C80.4727 97.554 81.8365 97.8634 83.2015 97.8634C84.6108 97.8634 85.9758 97.3786 87.0313 96.6264C88.0886 96.0082 89.1459 94.9478 89.7619 93.7114C90.3779 92.5188 91.1269 91.104 91.4346 89.6026C91.6106 88.806 91.7872 88.0105 91.919 87.2163C92.007 86.5536 92.0513 85.9348 92.0513 85.3166C92.0513 84.6095 92.007 83.9462 91.919 83.328Z" fill="black"/>
<path fill-rule="evenodd" clip-rule="evenodd" d="M64.4296 82.3396C66.6746 82.3396 67.8794 83.7258 67.8794 86.067C67.8794 87.6135 67.2634 89.2933 66.2079 90.6624C65.723 91.3683 65.1069 91.9439 64.358 92.341C63.6545 92.7387 62.817 92.9604 61.9375 92.9604V83.456H56.7415V97.3786H60.8359C62.0686 97.3786 63.2582 97.2452 64.358 96.9358C65.459 96.6709 66.5162 96.2293 67.3963 95.6988C69.245 94.639 70.7429 93.0926 71.6667 91.2806C72.5911 89.4254 73.0323 87.4368 73.0323 85.6255C73.0323 83.1514 72.1504 81.0307 70.9183 79.7937C69.6851 78.6011 67.704 77.8057 65.2823 77.8057H56.7415L55.961 82.3396H64.4296Z" fill="black"/>
<path fill-rule="evenodd" clip-rule="evenodd" d="M44.6835 78.2161C47.1076 77.1405 54.284 77.668 54.284 77.668L53.6207 72.0049L49.7484 72C48.0708 72 46.4788 72.1297 45.2735 72.3021C44.0693 72.4318 42.8639 72.9069 41.8315 73.3381C40.7991 73.6402 39.7661 74.3741 38.863 74.9796C36.7545 76.4474 35.1655 78.693 34.2618 81.1104C33.4012 83.4852 33 86.0323 33 88.4509V97.3889H39.7661V89.3139H46.9092V97.3889H53.6207V79.0329H46.9092V83.6581H40.3688C40.9278 81.4125 42.2594 79.2917 44.6835 78.2161Z" fill="black"/>
<defs>
<radialGradient id="paint0_radial" cx="0" cy="0" r="1" gradientUnits="userSpaceOnUse" gradientTransform="translate(71 71) rotate(90) scale(63)">
<stop stop-color="#E23D3D"/>
<stop offset="1" stop-color="#A80000"/>
</radialGradient>
</defs>
</svg>
