<svg width="76" height="26" viewBox="0 0 76 26" fill="none" xmlns="http://www.w3.org/2000/svg">
<path fill-rule="evenodd" clip-rule="evenodd" d="M58.9189 25.0692L58.7429 25.3786H64.3777L67.152 19.104L67.1957 19.2806L69.8808 25.3786H75.6491L70.4968 15.304L75.2085 5.80566H69.3971L67.1957 11.1514L67.152 11.3281L64.8627 5.80566H59.0512L63.8054 15.304L58.9189 25.0692Z" fill="#D01D2C"/>
<path fill-rule="evenodd" clip-rule="evenodd" d="M53.1069 16.9826C52.7992 18.0436 52.3586 19.104 51.8748 19.9006C51.4779 20.4299 50.7733 20.8721 50.2015 20.9604H50.0698C49.2772 20.9604 48.3971 20.165 47.7811 18.6624C47.1644 17.116 46.8555 15.4368 46.8555 13.7582C46.8555 12.5218 47.1644 11.6374 47.7811 11.0192C48.2205 10.4004 49.1442 10.0916 50.2015 10.0916C52.3586 10.0916 53.5482 11.328 53.5482 13.7582C53.5482 14.6858 53.4153 15.7456 53.1069 16.9826ZM58.919 11.328C58.6106 9.56112 57.906 8.23519 56.7619 7.35143C55.2646 6.11503 52.9758 5.49622 50.2015 5.49622C47.1644 5.49622 44.7427 6.2478 43.3777 7.48482C42.1451 8.72183 41.3967 10.842 41.3967 13.3166V13.4488C41.3967 14.9952 41.6613 16.541 41.969 18.0436C42.2774 19.59 43.0694 20.9604 43.8184 22.153C44.4344 23.2572 45.4911 24.3176 46.5472 24.9358C47.4727 25.554 48.8365 25.8634 50.2015 25.8634C51.6108 25.8634 52.9758 25.3786 54.0313 24.6264C55.0886 24.0082 56.1459 22.9478 56.7619 21.7114C57.3779 20.5188 58.1269 19.104 58.4346 17.6026C58.6106 16.806 58.7872 16.0105 58.919 15.2163C59.007 14.5536 59.0513 13.9348 59.0513 13.3166C59.0513 12.6095 59.007 11.9462 58.919 11.328Z" fill="#D01D2C"/>
<path fill-rule="evenodd" clip-rule="evenodd" d="M31.4296 10.3396C33.6746 10.3396 34.8794 11.7258 34.8794 14.067C34.8794 15.6135 34.2634 17.2933 33.2079 18.6624C32.723 19.3683 32.1069 19.9439 31.358 20.341C30.6545 20.7387 29.817 20.9604 28.9375 20.9604V11.456H23.7415V25.3786H27.8359C29.0686 25.3786 30.2582 25.2452 31.358 24.9358C32.4589 24.6709 33.5162 24.2293 34.3963 23.6988C36.245 22.639 37.7429 21.0926 38.6667 19.2806C39.5911 17.4254 40.0323 15.4368 40.0323 13.6255C40.0323 11.1514 39.1504 9.03067 37.9183 7.79366C36.685 6.6011 34.704 5.80566 32.2823 5.80566H23.7415L22.961 10.3396H31.4296Z" fill="#D01D2C"/>
<path fill-rule="evenodd" clip-rule="evenodd" d="M11.6835 6.21613C14.1076 5.14052 21.284 5.66797 21.284 5.66797L20.6207 0.00487253L16.7484 0C15.0708 0 13.4788 0.129731 12.2735 0.302097C11.0693 0.431828 9.86393 0.906899 8.83153 1.33812C7.79913 1.64021 6.76613 2.37414 5.863 2.97955C3.75451 4.4474 2.16555 6.69303 1.26182 9.11041C0.401185 11.4852 0 14.0323 0 16.4509V25.3889H6.76613V17.3139H13.9092V25.3889H20.6207V7.03288H13.9092V11.6581H7.36881C7.9278 9.41251 9.25942 7.29174 11.6835 6.21613Z" fill="#D01D2C"/>
</svg>
