<svg width="48" height="48" viewBox="0 0 48 48" fill="none" xmlns="http://www.w3.org/2000/svg">
<path d="M40.1064 30.3653C25.7816 30.8604 12.6546 37.5912 7.24507 42.7942C6.74427 43.1715 6.86774 44.1443 6.95659 44.2862C7.98935 46.174 9.78138 47.1352 12.0754 47.1352H35.6165C38.9582 47.1352 41.6918 44.4016 41.6918 41.0587V31.7431C41.6918 30.6538 40.8506 30.3607 40.1064 30.3653Z" fill="#D01D2C"/>
<path d="M41.6919 6.07538C41.6919 2.73479 38.9582 0 35.6165 0H12.0754C8.73479 0 6 2.73479 6 6.07538V41.0587C6 41.5007 6.55965 41.8849 7.13661 41.308C8.21783 39.9891 9.57484 38.909 11.3773 37.4504V24.62C11.3773 21.9071 11.8284 19.0466 12.7977 16.381C13.8155 13.6682 15.6052 11.148 17.9811 9.50021C18.9989 8.82171 20.162 7.99781 21.3252 7.65856C22.4872 7.17391 23.8454 6.6408 25.2024 6.49541C26.5582 6.30155 28.3514 6.15616 30.2427 6.15616L34.6033 6.16193L35.3499 12.5189C35.3499 12.5189 27.2667 11.9257 24.5365 13.1327C21.8052 14.3409 20.3063 16.7214 19.6762 19.2416H27.0429V14.0501H34.6033V27.2302C36.5615 26.9498 38.6132 26.779 40.7572 26.7444C41.4218 26.7109 41.7011 26.1824 41.6919 25.7047C41.6826 25.2858 41.6919 6.07538 41.6919 6.07538ZM18.9989 32.3709C21.3979 31.0796 24.0796 29.9015 27.0429 28.9587V25.5893H18.9989V32.3709Z" fill="#D01D2C"/>
</svg>
