<svg width="32" height="32" viewBox="0 0 32 32" fill="none" xmlns="http://www.w3.org/2000/svg">
<path d="M21.88 10.44L11.29 4.28001L9.53999 3.26001V5.29001V18.16V18.83L10.12 19.16L20.71 25.32L22.46 26.34V24.31V11.45V10.77L21.88 10.44Z" fill="#B8B8B9" stroke="black" stroke-width="0.5" stroke-linejoin="round"/>
<path d="M21.3 11.45L10.7 5.29001V18.16L21.3 24.31V11.45Z" fill="white"/>
<path d="M21.3 22.62L12.11 17.28V6.10001L10.7 5.29001V16.46V18.16L12.11 18.97L21.3 24.31V22.62Z" fill="#DDDDDF"/>
<path d="M12.11 17.28V6.10001L10.7 5.29001V16.46V18.16L12.11 17.28Z" fill="#A6A6A7"/>
<path d="M21.3 11.45L10.7 5.29001V18.16L21.3 24.31V11.45Z" stroke="black" stroke-width="0.5" stroke-linecap="round" stroke-linejoin="round"/>
<path d="M19.87 18.75V15.91" stroke="black" stroke-width="0.5" stroke-linecap="round" stroke-linejoin="round"/>
</svg>
