<svg width="32" height="32" viewBox="0 0 32 32" fill="none" xmlns="http://www.w3.org/2000/svg">
<path d="M22.72 10.44L12.13 4.28001L10.38 3.26001V5.29001V18.16V18.83L10.96 19.16L21.55 25.32L23.3 26.34V24.31V11.45V10.77L22.72 10.44Z" fill="#B8B8B9" stroke="black" stroke-width="0.5" stroke-linejoin="round"/>
<path d="M22.14 11.45L11.54 5.29001V18.16L22.14 24.31V11.45Z" fill="white"/>
<path d="M22.14 22.62L12.95 17.28V6.10001L11.54 5.29001V16.46V18.16L12.95 18.97L22.14 24.31V22.62Z" fill="#DDDDDF"/>
<path d="M12.95 17.28V6.10001L11.54 5.29001V16.46V18.16L12.95 17.28Z" fill="#A6A6A7"/>
<path d="M22.14 11.45L11.54 5.29001V18.16L22.14 24.31V11.45Z" stroke="black" stroke-width="0.5" stroke-linecap="round" stroke-linejoin="round"/>
<path d="M10.86 15.57L11.54 15.11" stroke="black" stroke-width="0.5" stroke-linecap="round" stroke-linejoin="round"/>
<path opacity="0.6" d="M19.29 13.49L8.70001 7.32999L11.54 18.16L22.14 24.31L19.29 13.49Z" fill="white"/>
<path d="M19.29 13.49L8.70001 7.32999L11.54 18.16L22.14 24.31L19.29 13.49Z" stroke="black" stroke-width="0.5" stroke-linecap="round" stroke-linejoin="round"/>
<path d="M21.34 21.27L22.14 20.72" stroke="black" stroke-width="0.5" stroke-linecap="round" stroke-linejoin="round"/>
<path d="M19.69 19.9L18.92 17" stroke="black" stroke-width="0.5" stroke-linecap="round" stroke-linejoin="round"/>
</svg>
