<svg width="32" height="32" viewBox="0 0 32 32" fill="none" xmlns="http://www.w3.org/2000/svg">
<path d="M21.88 10.44L11.29 4.28001L9.54001 3.26001V5.29001V18.16V18.83L10.12 19.16L20.71 25.32L22.46 26.34V24.31V11.45V10.77L21.88 10.44Z" fill="#B8B8B9" stroke="black" stroke-width="0.5" stroke-linejoin="round"/>
<path d="M21.3 11.45L10.7 5.29001V18.16L21.3 24.31V11.45Z" fill="#DDDDDF" stroke="black" stroke-width="0.5" stroke-linecap="round" stroke-linejoin="round"/>
<path d="M19.28 12.7L19.29 13.03L12.74 9.27L12.72 9" fill="#A6A6A7"/>
<path d="M19.28 12.7L19.29 13.03L12.74 9.27L12.72 9" stroke="black" stroke-width="0.5" stroke-linecap="round" stroke-linejoin="round"/>
<path d="M19.28 15.26L19.29 15.58L12.74 11.83L12.72 11.56" fill="#A6A6A7"/>
<path d="M19.28 15.26L19.29 15.58L12.74 11.83L12.72 11.56" stroke="black" stroke-width="0.5" stroke-linecap="round" stroke-linejoin="round"/>
<path d="M19.28 17.82L19.29 18.14L12.74 14.39L12.72 14.12" fill="#A6A6A7"/>
<path d="M19.28 17.82L19.29 18.14L12.74 14.39L12.72 14.12" stroke="black" stroke-width="0.5" stroke-linecap="round" stroke-linejoin="round"/>
<path d="M19.28 20.38L19.29 20.7L12.74 16.95L12.72 16.68" fill="#A6A6A7"/>
<path d="M19.28 20.38L19.29 20.7L12.74 16.95L12.72 16.68" stroke="black" stroke-width="0.5" stroke-linecap="round" stroke-linejoin="round"/>
</svg>
