<svg width="105" height="176" viewBox="0 0 105 176" fill="none" xmlns="http://www.w3.org/2000/svg">
<path d="M10.6562 57.4063L85.1171 14.0938L97.4218 6.92194V21.1954V111.688V116.398L93.3437 118.719L18.8828 162.031L6.57808 169.203V154.93V64.5079V59.7266L10.6562 57.4063Z" fill="#B8B8B9" stroke="black" stroke-width="0.75" stroke-linejoin="round"/>
<path d="M14.7343 64.5079L89.2656 21.1954V111.688L14.7343 154.93V64.5079Z" fill="#DDDDDF" stroke="black" stroke-width="0.75" stroke-linecap="round" stroke-linejoin="round"/>
<path d="M28.9375 73.2969L28.8672 75.6172L74.9219 49.1797L75.0625 47.2812" fill="#A6A6A7"/>
<path d="M28.9375 73.2969L28.8672 75.6172L74.9219 49.1797L75.0625 47.2812" stroke="black" stroke-width="0.75" stroke-linecap="round" stroke-linejoin="round"/>
<path d="M28.9375 91.2968L28.8672 93.5468L74.9219 67.1796L75.0625 65.2812" fill="#A6A6A7"/>
<path d="M28.9375 91.2968L28.8672 93.5468L74.9219 67.1796L75.0625 65.2812" stroke="black" stroke-width="0.75" stroke-linecap="round" stroke-linejoin="round"/>
<path d="M28.9375 109.297L28.8672 111.547L74.9219 85.1797L75.0625 83.2812" fill="#A6A6A7"/>
<path d="M28.9375 109.297L28.8672 111.547L74.9219 85.1797L75.0625 83.2812" stroke="black" stroke-width="0.75" stroke-linecap="round" stroke-linejoin="round"/>
<path d="M28.9375 127.297L28.8672 129.547L74.9219 103.18L75.0625 101.281" fill="#A6A6A7"/>
<path d="M28.9375 127.297L28.8672 129.547L74.9219 103.18L75.0625 101.281" stroke="black" stroke-width="0.75" stroke-linecap="round" stroke-linejoin="round"/>
</svg>
