<svg width="93" height="193" viewBox="0 0 93 193" fill="none" xmlns="http://www.w3.org/2000/svg">
<path d="M4.74001 51.46L79.94 7.76003L92.38 0.530029V14.92V134.38V139.14L88.26 141.54L13.06 185.24L0.62001 192.47V178.08V58.62V53.86L4.74001 51.46Z" fill="#B8B8B9" stroke="black" stroke-width="0.75" stroke-linecap="round" stroke-linejoin="round"/>
<path d="M8.90001 58.62L84.1 14.92V134.38L8.90001 178.08V58.62Z" fill="white" stroke="black" stroke-width="0.75" stroke-linecap="round" stroke-linejoin="round"/>
<path d="M8.90001 166.07L74.13 128.16V20.71L84.1 14.92V122.37V134.38L74.13 140.17L8.90001 178.08V166.07Z" fill="#DDDDDF" stroke="#666666" stroke-width="0.75" stroke-linecap="round" stroke-linejoin="round"/>
<path d="M74.13 128.16V20.71L84.1 14.92V122.37V134.38L74.13 128.16Z" fill="#A6A6A7" stroke="#666666" stroke-width="0.75" stroke-linecap="round" stroke-linejoin="round"/>
<path d="M21.17 107.81V113.1C21.1773 113.483 21.0819 113.862 20.8937 114.196C20.7056 114.53 20.4316 114.808 20.1 115L18.65 115.84C18.4722 115.943 18.2707 115.997 18.0654 115.998C17.8601 115.999 17.6581 115.947 17.4794 115.846C17.3006 115.745 17.1513 115.599 17.0462 115.422C16.9411 115.246 16.8838 115.045 16.88 114.84V110C16.8905 109.593 17.0055 109.195 17.2139 108.845C17.4222 108.494 17.717 108.204 18.07 108L19.74 107C19.8855 106.93 20.0458 106.896 20.2073 106.901C20.3687 106.907 20.5264 106.951 20.667 107.031C20.8075 107.11 20.9267 107.223 21.0143 107.359C21.1019 107.494 21.1553 107.649 21.17 107.81Z" fill="#B8B8B9" stroke="black" stroke-width="0.75" stroke-linecap="round" stroke-linejoin="round"/>
<path d="M21.38 107.8C22.6 113.41 22.31 121.47 21.38 127.12C21.2998 127.527 21.1249 127.909 20.8696 128.236C20.6142 128.562 20.2854 128.824 19.91 129C19.37 129.28 18.83 129.56 18.28 129.83C17.39 130.28 16.55 129.73 16.74 128.83C17.89 123.39 18.42 115.5 17.52 110.03C17.4475 109.656 17.4834 109.269 17.6233 108.915C17.7633 108.56 18.0015 108.254 18.31 108.03L19.77 107.03C19.9245 106.957 20.0934 106.919 20.2643 106.919C20.4353 106.92 20.604 106.958 20.7582 107.032C20.9124 107.106 21.0482 107.213 21.1558 107.346C21.2634 107.479 21.3399 107.634 21.38 107.8V107.8Z" fill="#B8B8B9" stroke="black" stroke-width="0.75" stroke-linecap="round" stroke-linejoin="round"/>
<path d="M8.90001 58.62L84.1 14.92V134.38L8.90001 178.08V58.62Z" stroke="black" stroke-width="0.75" stroke-linecap="round" stroke-linejoin="round"/>
</svg>
