<svg width="226" height="225" viewBox="0 0 226 225" fill="none" xmlns="http://www.w3.org/2000/svg">
<path d="M71.6562 73.4063L146.117 30.0938L158.422 22.9219V37.1954V127.688V132.398L154.344 134.719L79.8828 178.031L67.5781 185.203V170.93V80.5079V75.7266L71.6562 73.4063Z" fill="#B8B8B9" stroke="black" stroke-width="0.75" stroke-linejoin="round"/>
<path d="M75.7343 80.5079L150.266 37.1954V127.688L75.7343 170.93V80.5079Z" fill="#DDDDDF" stroke="black" stroke-width="0.75" stroke-linecap="round" stroke-linejoin="round"/>
<path d="M89.9375 89.2969L89.8672 91.6172L135.922 65.1797L136.062 63.2812" fill="#A6A6A7"/>
<path d="M89.9375 89.2969L89.8672 91.6172L135.922 65.1797L136.062 63.2812" stroke="black" stroke-width="0.75" stroke-linecap="round" stroke-linejoin="round"/>
<path d="M89.9375 107.297L89.8672 109.547L135.922 83.1796L136.062 81.2812" fill="#A6A6A7"/>
<path d="M89.9375 107.297L89.8672 109.547L135.922 83.1796L136.062 81.2812" stroke="black" stroke-width="0.75" stroke-linecap="round" stroke-linejoin="round"/>
<path d="M89.9375 125.297L89.8672 127.547L135.922 101.18L136.062 99.2812" fill="#A6A6A7"/>
<path d="M89.9375 125.297L89.8672 127.547L135.922 101.18L136.062 99.2812" stroke="black" stroke-width="0.75" stroke-linecap="round" stroke-linejoin="round"/>
<path d="M89.9375 143.297L89.8672 145.547L135.922 119.18L136.062 117.281" fill="#A6A6A7"/>
<path d="M89.9375 143.297L89.8672 145.547L135.922 119.18L136.062 117.281" stroke="black" stroke-width="0.75" stroke-linecap="round" stroke-linejoin="round"/>
</svg>
