<svg width="110" height="193" viewBox="0 0 110 193" fill="none" xmlns="http://www.w3.org/2000/svg">
<path d="M4.76999 51.44L80 7.71999L92.45 0.48999V14.88V134.4V139.16L88.33 141.56L13.09 185.28L0.649994 192.51V178.12V58.6V53.84L4.76999 51.44Z" fill="#B8B8B9" stroke="black" stroke-width="0.75" stroke-linecap="round" stroke-linejoin="round"/>
<path d="M8.93001 58.6L84.16 14.88V134.4L8.93001 178.12V58.6Z" fill="white"/>
<path d="M8.93001 166.11L12.29 164.16L8.93001 178.12V166.11Z" fill="#DDDDDF" stroke="black" stroke-width="0.75" stroke-linecap="round" stroke-linejoin="round"/>
<path d="M74.19 20.68L84.16 14.88V42.67L74.19 48.47V20.68Z" fill="#A6A6A7" stroke="black" stroke-width="0.75" stroke-linecap="round" stroke-linejoin="round"/>
<path d="M84.16 134.4L74.19 128.18V48.47L84.16 42.67V122.39V134.4Z" fill="#A6A6A7" stroke="#666666" stroke-width="0.75" stroke-linecap="round" stroke-linejoin="round"/>
<path d="M88.79 114.89L84.16 111.66V116.62L87.77 119.1L88.79 114.89Z" fill="#A6A6A7" stroke="#666666" stroke-width="0.75" stroke-linecap="round" stroke-linejoin="round"/>
<path d="M74.19 128.18L84.16 134.4L74.19 140.19L8.93001 178.12L12.29 164.16L74.19 128.18Z" fill="#DDDDDF" stroke="#666666" stroke-width="0.75" stroke-linecap="round" stroke-linejoin="round"/>
<path d="M14.17 156.31L8.93 152.64V157.61L13.16 160.51L14.17 156.31Z" fill="#A6A6A7" stroke="black" stroke-width="0.75" stroke-linecap="round" stroke-linejoin="round"/>
<path d="M34.12 71.76L109.35 28.04L84.16 134.4L8.93001 178.12L34.12 71.76Z" stroke="black" stroke-width="0.75" stroke-linecap="round" stroke-linejoin="round"/>
<path d="M84.16 14.88V42.67L34.12 71.76L8.93001 178.12V58.6L84.16 14.88Z" stroke="black" stroke-width="0.75" stroke-linecap="round" stroke-linejoin="round"/>
<path d="M34.87 115.22L33.63 120.37C33.5428 120.736 33.3612 121.073 33.1033 121.346C32.8453 121.62 32.5201 121.821 32.16 121.93L30.55 122.41C30.3522 122.468 30.1428 122.473 29.9425 122.424C29.7422 122.376 29.5581 122.276 29.4084 122.135C29.2588 121.993 29.1488 121.815 29.0894 121.617C29.03 121.42 29.0233 121.211 29.07 121.01L30.19 116.37C30.2841 115.966 30.4836 115.594 30.7681 115.292C31.0527 114.989 31.4121 114.768 31.81 114.65L33.67 114.09C33.8286 114.056 33.9931 114.06 34.1494 114.104C34.3058 114.147 34.4492 114.228 34.5673 114.339C34.6854 114.451 34.7747 114.589 34.8274 114.742C34.8802 114.896 34.8948 115.06 34.87 115.22Z" fill="#B8B8B9" stroke="black" stroke-width="0.75" stroke-linecap="round" stroke-linejoin="round"/>
<path d="M38.92 97.71C39 103.45 37.12 111.3 35.05 116.64C34.8917 117.013 34.6499 117.346 34.343 117.611C34.0361 117.876 33.6724 118.067 33.28 118.17L31.51 118.66C30.51 118.92 29.83 118.21 30.2 117.37C32.41 112.26 34.5 104.64 34.7 99.09C34.6969 98.7019 34.8069 98.3213 35.0164 97.9945C35.2259 97.6678 35.526 97.4091 35.88 97.25L37.5 96.59C37.6691 96.5511 37.8448 96.5506 38.0142 96.5887C38.1835 96.6267 38.3421 96.7022 38.4784 96.8097C38.6147 96.9172 38.7251 97.0539 38.8015 97.2097C38.8779 97.3655 38.9184 97.5365 38.92 97.71Z" fill="#B8B8B9" stroke="black" stroke-width="0.75" stroke-linecap="round" stroke-linejoin="round"/>
</svg>
