<svg width="160" height="194" viewBox="0 0 160 194" fill="none" xmlns="http://www.w3.org/2000/svg">
<path d="M5.12 51.93L80.32 8.23L92.76 1V15.39V134.85V139.61L88.64 142.01L13.44 185.71L1 192.94V178.55V59.09V54.33L5.12 51.93Z" fill="#B8B8B9" stroke="black" stroke-width="0.75" stroke-linecap="round" stroke-linejoin="round"/>
<path d="M9.27997 59.09L84.48 15.39V134.85L9.27997 178.55V59.09Z" fill="white" stroke="black" stroke-width="0.75" stroke-linecap="round" stroke-linejoin="round"/>
<path d="M9.27997 166.54L74.51 128.63V21.18L84.48 15.39V122.84V134.85L74.51 140.64L9.27997 178.55V166.54Z" fill="#DDDDDF" stroke="#666666" stroke-width="0.75" stroke-linecap="round" stroke-linejoin="round"/>
<path d="M74.51 128.63V21.18L84.48 15.39V122.84V134.85L74.51 128.63Z" fill="#A6A6A7" stroke="#666666" stroke-width="0.75" stroke-linecap="round" stroke-linejoin="round"/>
<path d="M146.923 105.379V110.669C146.916 111.052 147.011 111.431 147.199 111.765C147.387 112.099 147.661 112.377 147.993 112.569L149.443 113.409C149.621 113.512 149.822 113.566 150.027 113.567C150.233 113.568 150.435 113.516 150.613 113.415C150.792 113.314 150.942 113.168 151.047 112.991C151.152 112.815 151.209 112.614 151.213 112.409V107.569C151.202 107.162 151.087 106.764 150.879 106.414C150.671 106.064 150.376 105.773 150.023 105.569L148.353 104.569C148.207 104.499 148.047 104.465 147.886 104.471C147.724 104.476 147.566 104.52 147.426 104.6C147.285 104.679 147.166 104.792 147.079 104.928C146.991 105.063 146.938 105.218 146.923 105.379Z" fill="#B8B8B9" stroke="black" stroke-width="0.75" stroke-linecap="round" stroke-linejoin="round"/>
<path d="M146.713 105.369C145.493 110.979 145.783 119.039 146.713 124.689C146.793 125.096 146.968 125.478 147.223 125.805C147.479 126.131 147.807 126.393 148.183 126.569C148.723 126.849 149.263 127.129 149.813 127.399C150.703 127.849 151.543 127.299 151.353 126.399C150.203 120.959 149.673 113.069 150.573 107.599C150.645 107.225 150.609 106.838 150.47 106.484C150.33 106.13 150.091 105.823 149.783 105.599L148.323 104.599C148.168 104.526 148 104.488 147.829 104.489C147.658 104.489 147.489 104.527 147.335 104.601C147.18 104.675 147.045 104.782 146.937 104.915C146.83 105.048 146.753 105.203 146.713 105.369V105.369Z" fill="#B8B8B9" stroke="black" stroke-width="0.75" stroke-linecap="round" stroke-linejoin="round"/>
<path d="M159.38 59.17L84.18 15.47V134.93L159.38 178.63V59.17Z" stroke="black" stroke-width="0.75" stroke-linecap="round" stroke-linejoin="round"/>
</svg>
